<?xml version="1.0" standalone="no"?><!DOCTYPE svg PUBLIC "-//W3C//DTD SVG 1.1//EN" "http://www.w3.org/Graphics/SVG/1.1/DTD/svg11.dtd"><svg t="1648014020672" class="icon" viewBox="0 0 1024 1024" version="1.1" xmlns="http://www.w3.org/2000/svg" p-id="42830" xmlns:xlink="http://www.w3.org/1999/xlink" width="200" height="200"><defs><style type="text/css">@font-face { font-family: feedback-iconfont; src: url("//at.alicdn.com/t/font_1031158_u69w8yhxdu.woff2?t=1630033759944") format("woff2"), url("//at.alicdn.com/t/font_1031158_u69w8yhxdu.woff?t=1630033759944") format("woff"), url("//at.alicdn.com/t/font_1031158_u69w8yhxdu.ttf?t=1630033759944") format("truetype"); }
</style></defs><path d="M903.63828148 928.31668147c-8.25268148-90.90085925-47.57428148-204.37522963-112.86755556-269.6685037-43.5693037-43.5693037-95.51265185-75.48776297-152.18915555-94.42038519 24.51531852-14.80628148 46.36065185-33.7389037 64.32237038-55.94832592 26.82121482-33.25345185 44.29748148-73.0605037 50.48699258-115.17345185 0.24272592-1.57771852 0.48545185-3.03407408 0.60681482-4.6117926l97.09037037 0.36408889 8.98085926-7.64586666c19.29671111-16.62672592 21.48124445-45.75383703 4.85451852-65.05054815L547.0738963 87.3927111c-16.62672592-19.29671111-45.75383703-21.48124445-65.05054815-4.85451852L163.93102222 310.33647407c-19.29671111 16.62672592-21.48124445 45.75383703-4.85451852 65.05054814l9.46631112 10.92266667 105.22168888 0.36408889c0.24272592 1.69908148 0.48545185 3.51952592 0.72817778 5.2186074 11.04402963 70.26915555 54.7346963 134.71288889 114.688 172.57813334-56.31241482 18.93262222-107.77031111 50.85108148-150.97552593 94.0562963-65.29327408 65.29327408-104.61487408 178.76764445-112.86755555 269.6685037-0.12136297 0.9709037-0.12136297 2.06317037-0.12136297 3.03407407 0 17.96171852 14.56355555 32.768 32.768 32.768 16.99081482 0 31.06891852-12.98583703 32.64663705-29.85528889 6.79632592-75.60912592 39.56432592-174.88402963 93.93493333-229.25463703 61.40965925-61.40965925 143.08693333-95.26992592 229.98281481-95.26992592s168.57315555 33.86026667 229.98281481 95.26992592c54.37060741 54.37060741 87.13860741 153.64551111 93.93493334 229.25463703 1.57771852 16.86945185 15.65582222 29.85528889 32.64663704 29.85528889 19.17534815 0 34.22435555-16.50536297 32.52527407-35.68071111zM245.48693333 323.44367407l264.81398519-182.04444445 279.4989037 183.98625185-64.68645925-0.24272593-153.76687408-0.48545185-325.85955556-1.21362962z m95.26992592 66.87099259c78.6432-0.24272592 268.45487408-0.24272592 346.61262223 0-5.21860741 28.03484445-17.47626667 54.37060741-35.43798518 76.70139258-19.29671111 23.78714075-44.66157037 42.47703703-73.4245926 54.00651853-20.75306667 8.37404445-42.71976297 12.74311111-65.41463703 13.34992592-22.08805925 0.48545185-43.81202963-3.76225185-64.68645926-12.50038518l-1.09226666-0.48545185c-52.67152592-22.81623703-94.54174815-74.63822222-106.5566815-131.072z" fill="#333333" p-id="42831"></path></svg>