<?xml version="1.0" standalone="no"?><!DOCTYPE svg PUBLIC "-//W3C//DTD SVG 1.1//EN" "http://www.w3.org/Graphics/SVG/1.1/DTD/svg11.dtd"><svg t="1648003012531" class="icon" viewBox="0 0 1024 1024" version="1.1" xmlns="http://www.w3.org/2000/svg" p-id="16098" xmlns:xlink="http://www.w3.org/1999/xlink" width="200" height="200"><defs><style type="text/css">@font-face { font-family: feedback-iconfont; src: url("//at.alicdn.com/t/font_1031158_u69w8yhxdu.woff2?t=1630033759944") format("woff2"), url("//at.alicdn.com/t/font_1031158_u69w8yhxdu.woff?t=1630033759944") format("woff"), url("//at.alicdn.com/t/font_1031158_u69w8yhxdu.ttf?t=1630033759944") format("truetype"); }
</style></defs><path d="M606.068364 91.136l105.716363 105.716364v254.999272l138.647273 0.011637 105.716364 105.716363v371.723637H581.585455l-32.721455-32.721455v32.721455H174.312727l-100.072727-100.072728v-377.367272h162.909091v-360.727273h368.919273zM525.591273 574.021818l-334.219637 0.011637v331.985454l334.219637 0.011636v-32.73309l-1.000728-0.989091 0.989091-1.012364 0.011637-297.274182z m407.272727 0l-334.219636 0.011637v331.985454l334.219636 0.011636V574.021818zM97.501091 492.648727l0.011636 326.946909 70.586182 70.586182V567.04L97.512727 492.637091z m451.374545 371.025455l26.496 26.496V568.564364h-26.507636v295.109818zM345.378909 608.581818a11.636364 11.636364 0 0 1 0.965818 15.36l-0.965818 1.093818-110.685091 110.685091a11.636364 11.636364 0 0 1-17.419636-15.36l0.965818-1.093818 110.685091-110.685091a11.636364 11.636364 0 0 1 16.453818 0z m407.272727 0a11.636364 11.636364 0 0 1 0.965819 15.36l-0.965819 1.093818-110.685091 110.685091a11.636364 11.636364 0 0 1-17.419636-15.36l0.965818-1.093818 110.685091-110.685091a11.636364 11.636364 0 0 1 16.453818 0z m-468.212363-5.678545a11.636364 11.636364 0 0 1 0.965818 15.36l-0.965818 1.093818-49.745455 49.745454a11.636364 11.636364 0 0 1-17.419636-15.36l0.965818-1.093818 49.745455-49.745454a11.636364 11.636364 0 0 1 16.453818 0z m407.272727 0a11.636364 11.636364 0 0 1 0.965818 15.36l-0.965818 1.093818-49.745455 49.745454a11.636364 11.636364 0 0 1-17.419636-15.36l0.965818-1.093818 49.745455-49.745454a11.636364 11.636364 0 0 1 16.453818 0zM243.781818 475.136H112.954182l71.773091 75.613091h134.667636l-75.613091-75.613091z m597.003637 0H711.773091v75.613091h204.637091l-75.624727-75.613091zM688.488727 213.294545l-334.208 0.011637v331.985454l334.219637 0.011637V213.294545zM260.421818 131.921455l0.011637 326.946909 70.586181 70.586181V206.312727l-70.597818-74.391272zM508.299636 247.854545a11.636364 11.636364 0 0 1 0.965819 15.36l-0.965819 1.093819-110.685091 110.685091a11.636364 11.636364 0 0 1-17.419636-15.36l0.965818-1.093819 110.685091-110.685091a11.636364 11.636364 0 0 1 16.453818 0z m-60.939636-5.678545a11.636364 11.636364 0 0 1 0.965818 15.36l-0.965818 1.093818-49.745455 49.745455a11.636364 11.636364 0 0 1-17.419636-15.36l0.965818-1.093818 49.745455-49.745455a11.636364 11.636364 0 0 1 16.453818 0z m149.061818-127.767273H275.863273l71.773091 75.613091h324.398545l-75.613091-75.613091z" fill="#666666" p-id="16099"></path></svg>