<?xml version="1.0" standalone="no"?><!DOCTYPE svg PUBLIC "-//W3C//DTD SVG 1.1//EN" "http://www.w3.org/Graphics/SVG/1.1/DTD/svg11.dtd"><svg t="1648003706497" class="icon" viewBox="0 0 1024 1024" version="1.1" xmlns="http://www.w3.org/2000/svg" p-id="20815" xmlns:xlink="http://www.w3.org/1999/xlink" width="200" height="200"><defs><style type="text/css">@font-face { font-family: feedback-iconfont; src: url("//at.alicdn.com/t/font_1031158_u69w8yhxdu.woff2?t=1630033759944") format("woff2"), url("//at.alicdn.com/t/font_1031158_u69w8yhxdu.woff?t=1630033759944") format("woff"), url("//at.alicdn.com/t/font_1031158_u69w8yhxdu.ttf?t=1630033759944") format("truetype"); }
</style></defs><path d="M866.21147 394.458023c-10.384198-12.114897-19.903045-22.35487-27.546969-29.998793L769.580742 298.83687a31.441043 31.441043 0 0 0-23.652894-10.384197h-451.424144a30.719918 30.719918 0 0 0-20.479945 7.788148l-87.544555 66.343484c-9.518848 9.374623-19.037696 19.903045-28.844993 31.873718-14.422497 17.306996-22.06642 43.26749-22.06642 77.593032v425.319425a167.877861 167.877861 0 0 0 14.422497 60.862935 127.639095 127.639095 0 0 0 33.748642 43.26749 106.2938 106.2938 0 0 0 72.112483 22.210645h514.594679A107.880275 107.880275 0 0 0 841.693225 1002.22203a128.215995 128.215995 0 0 0 34.758217-44.13284 150.42664 150.42664 0 0 0 12.547572-61.728285V472.051055c-0.721125-34.758217-7.932373-60.286036-22.787544-77.593032zM827.270729 896.360905a85.525405 85.525405 0 0 1-6.922799 36.056241 64.612785 64.612785 0 0 1-18.02812 22.35487 48.748039 48.748039 0 0 1-31.296818 7.643923H253.976488a52.642113 52.642113 0 0 1-31.441042-7.211248 66.343484 66.343484 0 0 1-17.595446-22.210645 106.438025 106.438025 0 0 1-8.509273-36.633141V472.195279a64.612785 64.612785 0 0 1 7.067023-37.354266c8.941948-10.528423 17.306996-19.614595 24.229795-26.681618l78.314156-57.689987h426.329l61.728286 56.968862c7.788148 7.788148 16.153196 17.018546 25.383594 27.691193 1.1538 1.298025 7.211248 9.518848 7.211248 37.642716z" p-id="20816"></path><path d="M649.87402 433.687214a64.75701 64.75701 0 0 0-11.249547 1.153799c-68.074184 16.874321-161.820412 52.930563-218.500824 95.909603-65.91081 50.046063-75.141207 127.20642-76.150782 158.647463v79.467956a10.961097 10.961097 0 0 1 0 2.163374l0.86535 4.470974a26.681619 26.681619 0 0 0 6.345899 11.537998A96.053827 96.053827 0 0 0 393.442031 807.662551a277.200385 277.200385 0 0 0 40.38299 2.740274A227.010097 227.010097 0 0 0 526.994349 793.240054c59.132236-27.691194 115.379973-98.505652 132.254294-168.022085a771.747794 771.747794 0 0 0 20.33572-162.685762 28.844993 28.844993 0 0 0-6.057448-17.883896 28.844993 28.844993 0 0 0-23.652895-10.961097z m-28.844993 74.708532a648.146998 648.146998 0 0 1-16.153196 102.976626c-13.124472 52.786338-57.689986 110.187874-100.957476 130.667819a123.456571 123.456571 0 0 1-31.152593 9.663073l-27.835418 4.903649L466.708313 738.867242a403.829905 403.829905 0 0 0 116.822223-145.522991 28.844993 28.844993 0 0 0-14.422497-37.210041 28.844993 28.844993 0 0 0-21.633745 0 27.835418 27.835418 0 0 0-15.576296 14.422496c-28.844993 63.458985-81.775556 110.908999-121.293196 139.753993l-11.537998 8.509273v-14.422497-13.557147c0-17.595446 5.913224-78.314157 53.940138-115.379973 50.622963-38.363841 127.062195-64.901235 157.637888-74.564307l10.239972-3.317174zM242.871166 245.185183H784.003239a39.661866 39.661866 0 0 0 39.661866-39.661866V96.777693A96.630727 96.630727 0 0 0 726.313253 0.00274H299.984253a96.774952 96.774952 0 0 0-96.774953 96.774953v108.745624A39.661866 39.661866 0 0 0 242.871166 245.185183zM260.899287 96.777693A39.084966 39.084966 0 0 1 299.984253 57.692727H726.313253a39.084966 39.084966 0 0 1 39.084965 39.084966V187.495196h-504.787381z" p-id="20817"></path></svg>