<?xml version="1.0" standalone="no"?><!DOCTYPE svg PUBLIC "-//W3C//DTD SVG 1.1//EN" "http://www.w3.org/Graphics/SVG/1.1/DTD/svg11.dtd"><svg t="1648015376886" class="icon" viewBox="0 0 1024 1024" version="1.1" xmlns="http://www.w3.org/2000/svg" p-id="53414" xmlns:xlink="http://www.w3.org/1999/xlink" width="200" height="200"><defs><style type="text/css">@font-face { font-family: feedback-iconfont; src: url("//at.alicdn.com/t/font_1031158_u69w8yhxdu.woff2?t=1630033759944") format("woff2"), url("//at.alicdn.com/t/font_1031158_u69w8yhxdu.woff?t=1630033759944") format("woff"), url("//at.alicdn.com/t/font_1031158_u69w8yhxdu.ttf?t=1630033759944") format("truetype"); }
</style></defs><path d="M846.644753 392.684366h-2.589127a94.934682 94.934682 0 0 0-50.056469 15.103245 95.366203 95.366203 0 0 0-90.619469-66.454278 106.585756 106.585756 0 0 0-53.077117 14.671724A94.934682 94.934682 0 0 0 557.957016 289.55078 93.208597 93.208597 0 0 0 514.804888 302.064897V201.520438A95.366203 95.366203 0 0 0 417.281079 103.565107a98.386852 98.386852 0 0 0-98.818374 97.955331v381.464813l-60.412979-59.549937a104.859671 104.859671 0 0 0-140.244416 0 103.996629 103.996629 0 0 0-7.335862 146.285714L385.348504 944.168563a115.216182 115.216182 0 0 0 18.555415 14.671724c50.48799 43.152128 107.88032 65.159713 230.432364 65.159713 279.194269 0 304.654024-150.169406 304.654025-335.723557v-196.773704a93.640118 93.640118 0 0 0-92.345555-98.818373z m43.152129 294.729035c0 157.073746 0 284.372524-252.43995 284.372524-107.017278 0-172.608512-23.302149-219.644332-71.632533l-261.933418-258.912768a49.193426 49.193426 0 0 1 0-72.064054 53.508639 53.508639 0 0 1 72.064054 0l86.304257 86.304256 56.097766 55.666245V211.876949a47.03582 47.03582 0 0 1 47.898862-46.604298 43.152128 43.152128 0 0 1 43.152128 46.604298v315.442056a21.144543 21.144543 0 0 0 0 5.178256 25.891277 25.891277 0 1 0 51.351033 0 21.144543 21.144543 0 0 0 0-5.178256v-129.456384a45.741256 45.741256 0 1 1 91.05099 0v172.608513a21.144543 21.144543 0 0 0 0 5.178255 25.891277 25.891277 0 0 0 25.891277 25.891277 25.891277 25.891277 0 0 0 25.891277-25.891277 10.788032 10.788032 0 0 0 0-5.178255v-120.825959a43.152128 43.152128 0 0 1 43.152128-46.604298s47.03582 3.020649 47.03582 46.604298v150.169406a10.788032 10.788032 0 0 0 0 5.178255 25.891277 25.891277 0 0 0 25.891277 25.891277 25.459756 25.459756 0 0 0 25.459755-25.891277 10.788032 10.788032 0 0 0 0-5.178255v-102.270544a45.309735 45.309735 0 0 1 45.309735-46.604298 43.152128 43.152128 0 0 1 45.309734 46.604298v189.869364zM280.488833 348.237674v-86.304256a149.306363 149.306363 0 1 1 285.667088-60.844501 158.36831 158.36831 0 0 1-3.45217 32.364096 69.906448 69.906448 0 0 1 47.898862 21.576064 202.815002 202.815002 0 0 0 7.767383-53.508639 201.088917 201.088917 0 0 0-402.177834 0 198.931311 198.931311 0 0 0 64.296671 146.717236z" p-id="53415"></path></svg>