<?xml version="1.0" standalone="no"?><!DOCTYPE svg PUBLIC "-//W3C//DTD SVG 1.1//EN" "http://www.w3.org/Graphics/SVG/1.1/DTD/svg11.dtd"><svg t="1648014545627" class="icon" viewBox="0 0 1024 1024" version="1.1" xmlns="http://www.w3.org/2000/svg" p-id="44655" xmlns:xlink="http://www.w3.org/1999/xlink" width="200" height="200"><defs><style type="text/css">@font-face { font-family: feedback-iconfont; src: url("//at.alicdn.com/t/font_1031158_u69w8yhxdu.woff2?t=1630033759944") format("woff2"), url("//at.alicdn.com/t/font_1031158_u69w8yhxdu.woff?t=1630033759944") format("woff"), url("//at.alicdn.com/t/font_1031158_u69w8yhxdu.ttf?t=1630033759944") format("truetype"); }
</style></defs><path d="M512 1024A512 512 0 1 0 512 0a512 512 0 0 0 0 1024zM380.992 205.504L315.2 346.88a96 96 0 0 0 6.912 93.44L373.824 518.4a160 160 0 0 1 15.04 147.584l-71.168 177.856a32 32 0 1 1-59.392-23.808l71.104-177.792a96 96 0 0 0-8.96-88.576L268.672 475.52a160 160 0 0 1-11.52-155.712l65.792-141.312a32 32 0 1 1 57.984 27.008z m176.512-42.496a32 32 0 0 1 15.488 42.496L507.2 346.88a96 96 0 0 0 6.912 93.44L565.824 518.4a160 160 0 0 1 15.04 147.584l-71.168 177.856a32 32 0 1 1-59.392-23.808l71.104-177.792a96 96 0 0 0-8.96-88.576L460.672 475.52a160 160 0 0 1-11.52-155.712l65.792-141.312a32 32 0 0 1 42.496-15.488z m207.488 42.496L699.2 346.88a96 96 0 0 0 6.912 93.44l51.712 78.208a160 160 0 0 1 15.04 147.584l-71.168 177.856a32 32 0 1 1-59.392-23.808l71.104-177.792a96 96 0 0 0-8.96-88.576l-51.712-78.208a160 160 0 0 1-11.52-155.712l65.792-141.312a32 32 0 0 1 57.984 27.008z" p-id="44656"></path></svg>