<?xml version="1.0" standalone="no"?><!DOCTYPE svg PUBLIC "-//W3C//DTD SVG 1.1//EN" "http://www.w3.org/Graphics/SVG/1.1/DTD/svg11.dtd"><svg t="1648015331279" class="icon" viewBox="0 0 1024 1024" version="1.1" xmlns="http://www.w3.org/2000/svg" p-id="52754" xmlns:xlink="http://www.w3.org/1999/xlink" width="200" height="200"><defs><style type="text/css">@font-face { font-family: feedback-iconfont; src: url("//at.alicdn.com/t/font_1031158_u69w8yhxdu.woff2?t=1630033759944") format("woff2"), url("//at.alicdn.com/t/font_1031158_u69w8yhxdu.woff?t=1630033759944") format("woff"), url("//at.alicdn.com/t/font_1031158_u69w8yhxdu.ttf?t=1630033759944") format("truetype"); }
</style></defs><path d="M899.95776 359.0144c9.78944 3.37408 16.52224 13.2096 16.52224 24.30464v507.79136c0 13.98784-10.5984 25.3696-23.61856 25.3696H136.25856C123.2384 916.48 112.64 905.09824 112.64 891.1104V383.22176c0-11.08992 6.7328-20.93056 16.6144-24.21248l96.1792-32.22016 29.27616-191.86688c1.4336-12.73344 11.4944-22.28224 23.43936-22.28224h94.5664c11.93984 0 22.00064 9.5488 23.43936 22.28224l21.72928 127.23712 89.6256-30.09536a22.04672 22.04672 0 0 1 14.10048 0l378.34752 126.94528zM298.9824 163.4816L275.0976 310.09792l96.98816-32.60416-20.29568-114.0224H298.9824z m286.5664 702.35648v-101.5808H443.65824v101.5808h141.89056z m283.69408 0V401.93536l-354.72896-119.04-354.6368 119.04v463.90272h236.544v-126.9504c0-13.98784 10.5984-25.3696 23.61856-25.3696h189.1328c13.02016 0 23.61344 11.38176 23.61344 25.3696v126.9504h236.45696zM204.8 511.98464C204.8 497.87904 215.39328 486.4 228.40832 486.4H795.5968c13.01504 0 23.60832 11.47904 23.60832 25.58464v102.43072c0 14.1056-10.59328 25.58464-23.60832 25.58464H228.4032C215.3984 640 204.8 628.52096 204.8 614.41536V511.98464z m472.73984 25.58464v51.26144h94.53056v-51.26144h-94.53056z m-141.83936 0v51.26144h94.53056v-51.26144h-94.53056z m-141.83936 0v51.26144h94.53056v-51.26144H393.86112z m-141.75232 0v51.26144h94.53056v-51.26144H252.1088z" p-id="52755"></path></svg>