<?xml version="1.0" standalone="no"?><!DOCTYPE svg PUBLIC "-//W3C//DTD SVG 1.1//EN" "http://www.w3.org/Graphics/SVG/1.1/DTD/svg11.dtd"><svg t="1648004301523" class="icon" viewBox="0 0 1024 1024" version="1.1" xmlns="http://www.w3.org/2000/svg" p-id="36961" xmlns:xlink="http://www.w3.org/1999/xlink" width="200" height="200"><defs><style type="text/css">@font-face { font-family: feedback-iconfont; src: url("//at.alicdn.com/t/font_1031158_u69w8yhxdu.woff2?t=1630033759944") format("woff2"), url("//at.alicdn.com/t/font_1031158_u69w8yhxdu.woff?t=1630033759944") format("woff"), url("//at.alicdn.com/t/font_1031158_u69w8yhxdu.ttf?t=1630033759944") format("truetype"); }
</style></defs><path d="M947.397255 238.231558H867.090493V62.855388A62.906118 62.906118 0 0 0 804.285836 0H76.4519A62.906118 62.906118 0 0 0 13.596512 62.906118v898.238494a62.906118 62.906118 0 0 0 62.906118 62.855388h870.945356a62.906118 62.906118 0 0 0 62.906118-62.855388V301.137676a62.906118 62.906118 0 0 0-62.956849-62.906118z m-8.116918 714.694674H867.090493v-0.1319h-71.023037v0.1319H84.619549V71.023037h711.447907v661.731781a35.511518 35.511518 0 0 0 35.511518 35.511518 35.511518 35.511518 0 0 0 35.511519-35.511518V309.254595h72.139113z" p-id="36962"></path><path d="M664.877761 595.274511H398.541372V434.052217c36.079703-2.790191 90.818172-13.768323 129.28222-52.242517 60.775427-60.765281 52.952747-162.145593 52.587485-166.396829l-2.384344-27.749715-27.729423-2.34376c-4.281675-0.365261-105.65184-8.187942-166.39683 52.587485a148.529462 148.529462 0 0 0-15.097468 17.705029 148.529462 148.529462 0 0 0-15.097468-17.705029c-60.775427-60.775427-162.135447-52.952747-166.39683-52.587485l-27.729423 2.34376-2.34376 27.729423c-0.365261 4.281675-8.187942 105.661987 52.587486 166.396829 36.221749 36.231895 86.87132 48.082596 122.768392 51.664186V595.274511H215.809244a32.974981 32.974981 0 0 0-32.974981 32.974981 32.974981 32.974981 0 0 0 32.974981 32.974982h449.068517a32.974981 32.974981 0 0 0 32.974981-32.974982 32.974981 32.974981 0 0 0-32.974981-32.974981z m-234.376022-310.735933c22.899856-22.910002 58.157721-30.438444 83.462214-32.812643-2.333614 25.304493-9.912787 60.562358-32.812643 83.462215-20.515512 20.515512-50.94381 28.723745-75.243834 31.899489a279.242289 279.242289 0 0 0-3.541006-27.820738c4.728105-19.368997 13.149408-39.701878 28.175853-54.728323z m-98.823483 82.549061c-24.350756-3.175744-54.728323-11.383978-75.243835-31.899489-22.910002-22.88971-30.479029-58.178013-32.812643-83.462215 25.304493 2.333614 60.562358 9.902641 83.462215 32.812643 15.026445 15.026445 23.447748 35.359326 28.135269 54.728323a278.50162 278.50162 0 0 0-3.541006 27.820738z" p-id="36963"></path><path d="M182.834263 780.340253m32.974981 0l449.068517 0q32.974981 0 32.974981 32.974981l0 0q0 32.974981-32.974981 32.974982l-449.068517 0q-32.974981 0-32.974981-32.974982l0 0q0-32.974981 32.974981-32.974981Z" p-id="36964"></path><path d="M551.037979 410.208769m32.974981 0l80.864801 0q32.974981 0 32.974981 32.974981l0 0q0 32.974981-32.974981 32.974982l-80.864801 0q-32.974981 0-32.974981-32.974982l0 0q0-32.974981 32.974981-32.974981Z" p-id="36965"></path></svg>