<?xml version="1.0" standalone="no"?><!DOCTYPE svg PUBLIC "-//W3C//DTD SVG 1.1//EN" "http://www.w3.org/Graphics/SVG/1.1/DTD/svg11.dtd"><svg t="1648003062477" class="icon" viewBox="0 0 1024 1024" version="1.1" xmlns="http://www.w3.org/2000/svg" p-id="16371" xmlns:xlink="http://www.w3.org/1999/xlink" width="200" height="200"><defs><style type="text/css">@font-face { font-family: feedback-iconfont; src: url("//at.alicdn.com/t/font_1031158_u69w8yhxdu.woff2?t=1630033759944") format("woff2"), url("//at.alicdn.com/t/font_1031158_u69w8yhxdu.woff?t=1630033759944") format("woff"), url("//at.alicdn.com/t/font_1031158_u69w8yhxdu.ttf?t=1630033759944") format("truetype"); }
</style></defs><path d="M849.336456 455.164403a213.113505 213.113505 0 0 0-180.978611 100.881186 212.95363 212.95363 0 0 0-180.818735-100.881186h-106.95644v106.95644A213.113505 213.113505 0 0 0 593.5363 774.914598h42.846526v175.862607h63.950039v-175.862607h43.006401a212.95363 212.95363 0 0 0 212.793755-212.793755v-106.95644z m-255.800156 255.800156a149.003591 149.003591 0 0 1-149.003591-148.843716v-43.006401h43.006401a149.163466 149.163466 0 0 1 148.843716 148.843716v43.006401z m298.646682-148.843716a149.003591 149.003591 0 0 1-148.843716 148.843716h-43.006401v-42.846526a149.163466 149.163466 0 0 1 149.003591-149.003591h42.846526zM227.742077 220.307884h127.740202v63.790164h-127.740202zM419.272443 220.307884h383.060734v63.790164H419.272443z" p-id="16372"></path><path d="M123.503513 63.790164h766.601093v319.430445h63.790164V0H59.713349v958.13146h447.010773v-63.790164H123.503513V63.790164z" p-id="16373"></path></svg>