<?xml version="1.0" standalone="no"?><!DOCTYPE svg PUBLIC "-//W3C//DTD SVG 1.1//EN" "http://www.w3.org/Graphics/SVG/1.1/DTD/svg11.dtd"><svg t="1648015066286" class="icon" viewBox="0 0 1024 1024" version="1.1" xmlns="http://www.w3.org/2000/svg" p-id="49617" xmlns:xlink="http://www.w3.org/1999/xlink" width="200" height="200"><defs><style type="text/css">@font-face { font-family: feedback-iconfont; src: url("//at.alicdn.com/t/font_1031158_u69w8yhxdu.woff2?t=1630033759944") format("woff2"), url("//at.alicdn.com/t/font_1031158_u69w8yhxdu.woff?t=1630033759944") format("woff"), url("//at.alicdn.com/t/font_1031158_u69w8yhxdu.ttf?t=1630033759944") format("truetype"); }
</style></defs><path d="M789.911096 0a87.761399 87.761399 0 0 1 87.761399 87.761399v404.243629a272.835562 272.835562 0 0 0-68.79031 37.123072l-5.602103 4.256427-2.340304-2.705976c-49.760713-56.313564-120.45252-90.686779-197.097474-92.690664l-7.108674-0.087761a114.016684 114.016684 0 0 0-110.520854 85.991544c-6.435836 25.421552-9.873157 46.177123-9.873158 64.21209l0.043881 5.265683c1.813736 132.490458 72.081362 238.915781 185.191178 267.408982l6.055537 1.433437v110.330705c0 18.576163 4.651354 36.055308 12.842418 51.355045L87.819906 1023.882985a87.761399 87.761399 0 0 1-87.761398-87.761399V87.761399a87.761399 87.761399 0 0 1 87.761398-87.761399h702.09119zM596.73363 511.034625l5.19255 0.058507c67.400754 1.755228 126.668952 37.635013 162.066049 91.344989a208.067649 208.067649 0 0 1 26.708719 59.297452c33.437093-66.961947 101.291281-112.978174 179.530568-112.978174 8.117929 0 16.191978 0.628957 24.324535 1.608959 2.662096 0.365672 4.900011 1.477317 6.93315 2.954634l1.404183 1.27254c1.608959 1.46269 2.866872 3.305679 3.715232 5.338819 0.146269 0.277911 0.42418 0.42418 0.482688 0.702091l0.146269 0.42418c0 0.058508 0.073134 0.204777 0.073134 0.351045a208.287053 208.287053 0 0 1 10.23883 64.431494c0 55.289681-20.960347 107.28831-59.034167 146.356759-38.132328 39.200091-75.138384 60.774769-129.257914 60.774769a58.946406 58.946406 0 0 1-13.368986-0.277911l-3.510456-0.438807v140.286596a35.792024 35.792024 0 0 1-71.52554 2.35493l-0.087761-2.340304V794.021255c-5.528968 0.497315-11.145698 1.126271-16.820935 1.126271-111.456976 0-174.469661-92.880814-174.469661-207.058393 0-10.765398 2.545081-26.182151 7.635242-46.250257a40.882185 40.882185 0 0 1 36.962176-30.745744l2.662095-0.073134zM372.67878 723.212433h-209.749743a43.880699 43.880699 0 0 0-2.574335 87.688264l2.588962 0.073135h209.735116a43.880699 43.880699 0 1 0 0-87.761399z m0-260.022398h-209.749743a43.880699 43.880699 0 0 0-2.574335 87.688265l2.588962 0.073134h209.735116a43.880699 43.880699 0 0 0 0-87.761399z m342.123185-260.037024h-551.872928a43.880699 43.880699 0 0 0-2.574335 87.688264l2.588962 0.073135h551.843675a43.880699 43.880699 0 0 0 0-87.761399z" fill="#000000" p-id="49618"></path></svg>