<?xml version="1.0" standalone="no"?><!DOCTYPE svg PUBLIC "-//W3C//DTD SVG 1.1//EN" "http://www.w3.org/Graphics/SVG/1.1/DTD/svg11.dtd"><svg t="1648002051763" class="icon" viewBox="0 0 1026 1024" version="1.1" xmlns="http://www.w3.org/2000/svg" p-id="12658" xmlns:xlink="http://www.w3.org/1999/xlink" width="200.390625" height="200"><defs><style type="text/css">@font-face { font-family: feedback-iconfont; src: url("//at.alicdn.com/t/font_1031158_u69w8yhxdu.woff2?t=1630033759944") format("woff2"), url("//at.alicdn.com/t/font_1031158_u69w8yhxdu.woff?t=1630033759944") format("woff"), url("//at.alicdn.com/t/font_1031158_u69w8yhxdu.ttf?t=1630033759944") format("truetype"); }
</style></defs><path d="M524.480693 818.540998a27.430999 27.430999 0 0 1-13.715499-3.56603L38.129088 545.328252a27.430999 27.430999 0 1 1 27.430999-47.729938l459.194916 261.966037 436.975807-246.878988a27.430999 27.430999 0 0 1 27.430999 47.729938l-451.239927 254.559667a27.430999 27.430999 0 0 1-13.441189 3.56603z" p-id="12659"></path><path d="M524.480693 1023.999177a27.430999 27.430999 0 0 1-13.715499-3.56603L38.129088 750.786431a27.430999 27.430999 0 1 1 27.430999-47.729937l459.194916 261.966036 436.975807-246.878987a27.430999 27.430999 0 0 1 27.430999 47.729937L537.921882 1020.433147a27.430999 27.430999 0 0 1-13.441189 3.56603z" p-id="12660"></path><path d="M513.233983 599.915939a27.430999 27.430999 0 0 1-12.892569-3.29172L14.538429 337.949903a27.430999 27.430999 0 0 1 0-48.004248L499.518484 3.84034a27.430999 27.430999 0 0 1 27.430999 0l486.077295 286.105315a27.430999 27.430999 0 0 1 13.715499 24.413589 27.430999 27.430999 0 0 1-14.538429 23.590659l-486.077295 258.674316a25.785139 25.785139 0 0 1-12.89257 3.29172zM83.664546 312.439074l429.569437 229.048838 429.843748-229.048838-429.843748-253.188117z" p-id="12661"></path></svg>