<?xml version="1.0" standalone="no"?><!DOCTYPE svg PUBLIC "-//W3C//DTD SVG 1.1//EN" "http://www.w3.org/Graphics/SVG/1.1/DTD/svg11.dtd"><svg t="1648004403325" class="icon" viewBox="0 0 1024 1024" version="1.1" xmlns="http://www.w3.org/2000/svg" p-id="38087" xmlns:xlink="http://www.w3.org/1999/xlink" width="200" height="200"><defs><style type="text/css">@font-face { font-family: feedback-iconfont; src: url("//at.alicdn.com/t/font_1031158_u69w8yhxdu.woff2?t=1630033759944") format("woff2"), url("//at.alicdn.com/t/font_1031158_u69w8yhxdu.woff?t=1630033759944") format("woff"), url("//at.alicdn.com/t/font_1031158_u69w8yhxdu.ttf?t=1630033759944") format("truetype"); }
</style></defs><path d="M924.208762 95.573333c58.709333 34.669714-44.422095 146.919619-58.684952 257.950477-9.337905 72.606476 49.834667 156.818286 85.089523 250.026666A72.923429 72.923429 0 0 0 902.095238 585.142857h-58.368c-14.409143-69.558857-51.346286-154.35581-51.346286-195.047619 0-17.603048 3.047619-40.301714 6.241524-63.878095l1.462857-10.971429c7.314286-54.808381 12.970667-110.982095-18.797714-116.906666-23.064381-4.315429-130.145524-7.265524-239.835429-5.388191l-21.942857 0.438857c-109.665524 2.511238-216.502857 10.044952-239.128381 26.038857-46.738286 33.03619-83.382857 188.196571-95.085714 287.329524-11.678476 99.132952 20.796952 171.885714 70.119619 198.290286 25.112381 13.409524 167.204571 19.602286 305.347048 14.652952V950.857143c0 9.630476 1.852952 18.846476 5.241905 27.257905-18.67581 1.145905-37.13219 1.706667-55.198477 1.706666a2410.788571 2410.788571 0 0 1-70.753523-0.902095l-13.238858-0.438857C247.369143 971.727238 48.761905 932.644571 48.761905 719.725714 48.761905 472.673524 146.773333 135.216762 219.428571 97.52381c72.655238-37.692952 646.095238-36.571429 704.780191-1.950477zM902.095238 828.952381a24.380952 24.380952 0 0 1 24.380952 24.380952v97.52381a24.380952 24.380952 0 0 1-24.380952 24.380952H633.904762a24.380952 24.380952 0 0 1-24.380952-24.380952v-97.52381a24.380952 24.380952 0 0 1 24.380952-24.380952h268.190476z m-121.904762 48.761905h-121.904762v48.761904h121.904762v-48.761904z m73.142857 0a24.380952 24.380952 0 1 0 0 48.761904 24.380952 24.380952 0 0 0 0-48.761904z m48.761905-243.809524a24.380952 24.380952 0 0 1 24.380952 24.380952v97.52381a24.380952 24.380952 0 0 1-24.380952 24.380952H633.904762a24.380952 24.380952 0 0 1-24.380952-24.380952v-97.52381a24.380952 24.380952 0 0 1 24.380952-24.380952h268.190476z m-121.904762 48.761905h-121.904762v48.761904h121.904762v-48.761904z m73.142857 0a24.380952 24.380952 0 1 0 0 48.761904 24.380952 24.380952 0 0 0 0-48.761904zM386.169905 286.598095l3.413333 0.414476a375.174095 375.174095 0 0 0 22.796191 1.26781l15.311238 0.243809a113.615238 113.615238 0 0 0 9.947428-0.219428c10.313143-0.487619 18.212571 1.974857 23.28381 8.679619 5.12 6.656 5.924571 15.945143 3.608381 27.306667l-1.048381 4.339809c-1.024 3.803429-2.243048 13.116952-3.437715 27.136l-0.487619 5.485714a1117.379048 1117.379048 0 0 0-2.852571 68.656762l-0.658286 68.924953V521.337905l0.24381 14.872381a297.935238 297.935238 0 0 0 1.462857 22.211047c0.975238 8.777143 0.24381 17.408-2.145524 25.795048-2.633143 9.142857-7.314286 16.993524-14.872381 23.966476-9.99619 7.826286-21.455238 7.996952-28.915809-0.560762-4.242286-4.924952-6.558476-11.312762-7.119238-19.260952l-0.121905-4.120381 1.29219-25.429333 4.071619-65.950477 0.658286-9.776762-5.290667 0.463239-8.923428 1.145904-9.386667 1.560381-10.191238 1.950476-1.584762 8.606477c-2.925714 14.848-6.339048 28.330667-10.24 40.496762l-3.072 8.899047-2.681905 6.997334c-8.411429 20.675048-19.334095 39.765333-32.743619 57.197714-7.558095 9.874286-16.481524 15.896381-26.38019 16.335238-8.021333 0.390095-14.677333-1.609143-19.992381-7.265524-3.608381-4.778667-4.144762-11.215238-2.974476-19.699809 1.170286-8.411429 4.778667-16.384 10.459428-23.332572 7.509333-9.557333 14.140952-18.773333 19.992381-27.672381a200.752762 200.752762 0 0 0 24.81981-53.955047c2.974476-9.923048 5.510095-20.772571 7.655619-32.670477l2.901333-16.408381c1.29219-7.753143 2.389333-14.872381 3.267048-21.333333a387.584 387.584 0 0 0 3.462095-60.806095l-0.341333-13.653333-0.902096-23.405715c-0.731429-12.190476 1.536-22.576762 7.92381-30.086095l2.267429-2.389333c6.972952-6.582857 15.896381-8.582095 27.526095-7.460572z m261.290666 16.018286c4.705524 1.29219 8.899048 4.534857 13.604572 10.483809 5.997714 9.191619 9.069714 19.065905 8.704 29.086477l-0.390095 11.215238-0.316953 5.948952-1.560381 22.357333-1.657904 18.236953c-1.828571 14.57981-5.753905 24.771048-13.336381 30.329905-5.36381 3.949714-12.141714 5.997714-20.163048 6.534095l-23.454476 0.585143c-15.457524 0.487619-29.42781 1.219048-41.886476 2.169904l-14.140953 1.243429-6.558476 0.731429-6.192762 0.731428-5.680762 0.828953 0.438857 35.206095 0.146286 5.802666c0.24381 7.119238 0.853333 13.214476 1.755429 18.236953a46.32381 46.32381 0 0 0 4.486095 13.897143 20.48 20.48 0 0 0 6.582857 7.314285c2.438095 1.633524 5.36381 3.072 8.97219 4.364191l3.82781 1.219048a143.555048 143.555048 0 0 0 30.159238 6.777904c5.266286 0.633905 11.044571 0.975238 17.383619 1.072762 3.242667 0.048762 6.729143 0.048762 10.459429-0.024381l12.019809-0.390095c10.630095-0.24381 19.382857-0.804571 26.209524-1.657905 6.631619-0.853333 12.434286-2.048 17.408-3.584 4.85181-1.511619 9.337905-3.462095 13.531429-5.851428 4.632381-2.633143 9.947429-6.095238 16.067047-10.361905 7.996952-5.510095 16.091429-7.192381 23.698286-1.877333 9.752381 6.753524 9.435429 16.505905 4.949333 31.305142a75.385905 75.385905 0 0 1-10.386285 23.161905 53.51619 53.51619 0 0 1-20.577524 17.456762L633.904762 585.142857c-10.971429 0-21.382095 2.438095-30.72 6.753524l3.169524 0.341333a289.03619 289.03619 0 0 1-41.959619-6.851047l-10.556953-2.730667a128.414476 128.414476 0 0 1-16.505904-5.071238 64.195048 64.195048 0 0 1-13.068191-6.948572c-3.900952-2.706286-7.314286-5.802667-10.288762-9.264761a81.091048 81.091048 0 0 1-5.315047-7.070477l-2.438096-3.85219c-10.24-14.726095-15.018667-39.009524-15.36-73.557333l0.390096-24.137143 1.170285-54.613334 1.097143-34.645333 0.633905-14.628571c0.804571-15.36 5.461333-27.428571 14.384762-34.425905l2.803809-1.950476c8.43581-5.144381 20.358095-6.997333 36.278857-6.339048 17.16419 0.341333 32.426667 0.292571 45.836191-0.121905 9.898667-0.341333 19.504762-1.024 28.720762-2.072381l9.142857-1.194666c7.168-1.048381 12.239238-1.219048 16.14019-0.146286z m-231.472761 106.325333l-2.779429 0.268191c-2.340571 0.24381-4.803048 0.512-7.387429 0.853333a129.219048 129.219048 0 0 0-7.972571 1.292191l-11.459048 2.438095-2.584381 23.893333-0.487619 3.486476 4.266667-0.26819c5.753905-0.438857 11.800381-0.950857 18.090667-1.560381l7.996952-0.804572 0.24381-3.09638c0.24381-2.925714 0.487619-5.412571 0.707047-7.168l0.390095-2.438096 0.487619-6.534095 0.48762-10.361905z m142.482285-57.563428l-6.485333 0.731428-5.412572 0.828953a28.233143 28.233143 0 0 0-7.68 2.145523c-0.78019 0.365714-1.072762 0.633905-1.170285 0.804572a11.702857 11.702857 0 0 0-1.048381 3.705905l-0.560762 4.412952c-0.24381 2.535619-0.438857 5.607619-0.609524 9.508571-0.316952 2.681905-0.536381 6.168381-0.633905 10.361905l-0.219428 13.994667 4.632381-0.146286 16.091428-0.950857 4.608-0.341333-0.073143-11.166476-0.365714-13.068191-0.804571-16.774095-0.268191-4.047238z m52.150857-2.730667h-9.728v8.070095l0.146286 10.532572 0.633905 25.6 3.023238-0.24381c3.462095-0.316952 6.290286-0.633905 8.655238-1.024l2.218667-0.390095c1.852952-0.292571 3.462095-0.609524 4.87619-0.926476l2.706286-0.780191 0.487619-1.926095 0.219429-1.584762c0.316952-2.80381 0.536381-6.777905 0.682666-11.946667l0.073143-4.096c0.26819-9.606095-0.121905-16.432762-0.877714-19.919238l-0.292572-1.072762-0.097523 0.170667h-1.462858l-1.024-0.048762c-3.413333-0.195048-6.826667-0.341333-10.24-0.414476z m-194.023619-17.237333l-8.679619 0.902095c-2.438095 0.292571-4.608 0.609524-6.460952 0.926476a52.419048 52.419048 0 0 0-6.412191 1.462857l-4.608 1.536c-0.536381 0.24381-0.341333 0.560762-0.292571 2.438096l0.073143 21.577142c0 1.657905 0 3.364571-0.048762 5.12l-0.146286 3.267048 18.797715-1.706667 8.533333-0.926476 0.097524-7.728762c0.024381-4.388571 0-8.46019-0.121905-12.312381l-0.390095-10.069333c-0.195048-4.047238-0.438857-4.486095-0.341334-4.486095z" p-id="38088"></path></svg>