<?xml version="1.0" standalone="no"?><!DOCTYPE svg PUBLIC "-//W3C//DTD SVG 1.1//EN" "http://www.w3.org/Graphics/SVG/1.1/DTD/svg11.dtd"><svg t="1648015280986" class="icon" viewBox="0 0 1024 1024" version="1.1" xmlns="http://www.w3.org/2000/svg" p-id="52000" xmlns:xlink="http://www.w3.org/1999/xlink" width="200" height="200"><defs><style type="text/css">@font-face { font-family: feedback-iconfont; src: url("//at.alicdn.com/t/font_1031158_u69w8yhxdu.woff2?t=1630033759944") format("woff2"), url("//at.alicdn.com/t/font_1031158_u69w8yhxdu.woff?t=1630033759944") format("woff"), url("//at.alicdn.com/t/font_1031158_u69w8yhxdu.ttf?t=1630033759944") format("truetype"); }
</style></defs><path d="M30.254545 460.8H395.636364c16.290909 0 30.254545-13.963636 30.254545-30.254545V62.836364c0-16.290909-13.963636-30.254545-30.254545-30.254546H30.254545C13.963636 32.581818 0 46.545455 0 62.836364v367.709091c0 16.290909 13.963636 30.254545 30.254545 30.254545z m46.545455-379.345455H349.090909c16.290909 0 30.254545 13.963636 30.254546 30.254546v272.290909c0 16.290909-13.963636 30.254545-30.254546 30.254545H76.8c-16.290909 0-30.254545-13.963636-30.254545-30.254545V109.381818c0-16.290909 13.963636-27.927273 30.254545-27.927273zM46.545455 81.454545" fill="" p-id="52001"></path><path d="M167.563636 239.709091l-4.654545-4.654546c-9.309091-9.309091-23.272727-9.309091-34.909091-2.327272l-2.327273 2.327272c-9.309091 9.309091-11.636364 23.272727-2.327272 34.909091L162.909091 311.854545c9.309091 9.309091 25.6 11.636364 34.909091 0l97.745454-95.418181c9.309091-9.309091 9.309091-23.272727 2.327273-32.581819-9.309091-11.636364-25.6-11.636364-34.909091-2.327272l-60.509091 55.854545c-11.636364 11.636364-25.6 11.636364-34.909091 2.327273z m432.872728-116.363636h395.636363c16.290909 0 27.927273 11.636364 27.927273 27.927272v9.309091c0 16.290909-11.636364 27.927273-27.927273 27.927273h-395.636363c-16.290909 0-27.927273-11.636364-27.927273-27.927273v-9.309091c0-13.963636 13.963636-27.927273 27.927273-27.927272z m2.327272 181.527272h393.309091c16.290909 0 27.927273 11.636364 27.927273 27.927273v9.309091c0 16.290909-11.636364 27.927273-27.927273 27.927273h-395.636363c-16.290909 0-27.927273-11.636364-27.927273-27.927273v-6.981818c0-18.618182 13.963636-30.254545 30.254545-30.254546zM23.272727 1000.727273h377.018182c13.963636 0 23.272727-11.636364 23.272727-23.272728V598.109091c0-13.963636-11.636364-23.272727-23.272727-23.272727H23.272727c-13.963636 0-23.272727 11.636364-23.272727 23.272727V977.454545c0 11.636364 11.636364 23.272727 23.272727 23.272728z m48.872728-379.345455h281.6c13.963636 0 23.272727 11.636364 23.272727 23.272727l-2.327273 283.927273c0 13.963636-11.636364 23.272727-23.272727 23.272727H67.490909c-13.963636 0-23.272727-11.636364-23.272727-23.272727L46.545455 644.654545c0-11.636364 11.636364-23.272727 25.6-23.272727z m-6.981819 0M602.763636 665.6h390.981819c16.290909 0 30.254545 13.963636 30.254545 30.254545v6.981819c0 16.290909-13.963636 30.254545-30.254545 30.254545H602.763636c-16.290909 0-30.254545-13.963636-30.254545-30.254545v-6.981819c0-18.618182 13.963636-30.254545 30.254545-30.254545z m0 179.2h390.981819c16.290909 0 30.254545 13.963636 30.254545 30.254545v6.981819c0 16.290909-13.963636 30.254545-30.254545 30.254545H602.763636c-16.290909 0-30.254545-13.963636-30.254545-30.254545v-6.981819c0-16.290909 13.963636-30.254545 30.254545-30.254545z m-30.254545 0" fill="" p-id="52002"></path><path d="M172.218182 768l-6.981818-6.981818c-9.309091-9.309091-20.945455-9.309091-30.254546-2.327273l-6.981818 4.654546c-9.309091 6.981818-9.309091 20.945455-2.327273 30.254545l41.890909 46.545455c9.309091 9.309091 23.272727 9.309091 32.581819 0l100.072727-97.745455c6.981818-6.981818 9.309091-20.945455 2.327273-30.254545l-2.327273-2.327273c-6.981818-9.309091-23.272727-11.636364-32.581818-2.327273L202.472727 768c-9.309091 9.309091-23.272727 9.309091-30.254545 0z" fill="" p-id="52003"></path></svg>