<?xml version="1.0" standalone="no"?><!DOCTYPE svg PUBLIC "-//W3C//DTD SVG 1.1//EN" "http://www.w3.org/Graphics/SVG/1.1/DTD/svg11.dtd"><svg t="1648014922121" class="icon" viewBox="0 0 1024 1024" version="1.1" xmlns="http://www.w3.org/2000/svg" p-id="48857" xmlns:xlink="http://www.w3.org/1999/xlink" width="200" height="200"><defs><style type="text/css">@font-face { font-family: feedback-iconfont; src: url("//at.alicdn.com/t/font_1031158_u69w8yhxdu.woff2?t=1630033759944") format("woff2"), url("//at.alicdn.com/t/font_1031158_u69w8yhxdu.woff?t=1630033759944") format("woff"), url("//at.alicdn.com/t/font_1031158_u69w8yhxdu.ttf?t=1630033759944") format("truetype"); }
</style></defs><path d="M489.691429 46.518857a36.571429 36.571429 0 0 1 44.617142 0l6.656 5.12c29.988571 21.796571 82.139429 52.077714 148.553143 78.994286a521.728 521.728 0 0 0 170.496 37.449143h13.897143a36.571429 36.571429 0 0 1 36.571429 36.571428v365.933715c0 92.452571-53.833143 194.998857-146.358857 283.209142-81.993143 78.262857-181.248 131.291429-252.123429 131.291429-70.875429 0-170.130286-53.028571-252.196571-131.364571-92.306286-88.576-146.285714-191.049143-146.285715-283.136V204.726857a36.571429 36.571429 0 0 1 36.571429-36.571428l6.656 0.512 33.060571-2.925715 27.062857-3.510857a527.36 527.36 0 0 0 117.613715-31.597714c56.100571-22.820571 104.594286-49.517714 133.12-68.242286l14.628571-10.166857z m22.381714 74.093714l-14.555429 9.435429a923.062857 923.062857 0 0 1-135.460571 68.315429c-43.154286 17.554286-88.502857 29.184-134.144 36.205714-11.264 1.682286-24.722286 3.291429-36.571429 4.534857l-4.681143 0.438857v331.044572c0 65.316571 39.277714 143.872 109.275429 215.990857l14.409143 14.262857c69.705143 66.56 153.088 111.104 201.654857 111.104 48.566857 0 131.949714-44.544 201.654857-111.104 79.213714-75.483429 123.611429-160.182857 123.611429-230.253714v-330.605715l-11.922286-0.950857a606.793143 606.793143 0 0 1-141.897143-32.402286l-21.504-8.192a861.622857 861.622857 0 0 1-141.019428-72.045714L512 120.685714z m194.413714 272.091429a36.571429 36.571429 0 0 1 4.169143 46.665143l-4.169143 5.12L487.424 663.405714a36.571429 36.571429 0 0 1-46.665143 4.169143l-5.046857-4.169143L310.125714 537.892571a36.571429 36.571429 0 0 1 46.665143-55.954285l5.12 4.169143L461.531429 585.874286l193.097142-193.097143a36.571429 36.571429 0 0 1 51.785143 0z" p-id="48858"></path></svg>