<?xml version="1.0" standalone="no"?><!DOCTYPE svg PUBLIC "-//W3C//DTD SVG 1.1//EN" "http://www.w3.org/Graphics/SVG/1.1/DTD/svg11.dtd"><svg t="1648014767942" class="icon" viewBox="0 0 1024 1024" version="1.1" xmlns="http://www.w3.org/2000/svg" p-id="46901" xmlns:xlink="http://www.w3.org/1999/xlink" width="200" height="200"><defs><style type="text/css">@font-face { font-family: feedback-iconfont; src: url("//at.alicdn.com/t/font_1031158_u69w8yhxdu.woff2?t=1630033759944") format("woff2"), url("//at.alicdn.com/t/font_1031158_u69w8yhxdu.woff?t=1630033759944") format("woff"), url("//at.alicdn.com/t/font_1031158_u69w8yhxdu.ttf?t=1630033759944") format("truetype"); }
</style></defs><path d="M341.328 201.328h341.344c23.888 0 42.656-18.776 42.656-42.664V116c0-23.04-18.768-42.664-42.656-42.664H341.328c-23.032 0-42.656 18.776-42.656 42.664v42.664c0 23.888 18.768 42.664 42.656 42.664z m0-85.328h341.344v42.664H341.328V116z m512 0h-63.144v42.664h63.144V884H170.672V158.664h65.704V116h-65.704c-11.096 0-22.184 4.264-29.872 12.8-8.528 7.68-12.8 18.776-12.8 29.864V884c0 11.096 4.264 22.184 12.8 29.856 7.688 7.688 18.784 12.816 29.872 12.816h682.656c23.888 0 42.672-18.784 42.672-42.672V158.664c0-23.896-18.784-42.664-42.672-42.664z m-384 469.328H298.672V628h170.656v-42.672z m213.344-256h-384V372h384v-42.672z m-85.344 128H298.672V500h298.656v-42.672z" fill="" p-id="46902"></path><path d="M659.592 833.64v-57.424H571.816v-24.544H659.6v-25.264H571.816v-26.144h74.704L574.8 574.656h32.92l51.232 91.16c5.752 10.36 10.232 19.44 13.424 27.2 2.704-6.232 7.512-15.84 14.488-28.8l48.392-89.56h35.408L699.12 700.264h74.704v26.144H685.36v25.264h88.456v24.544H685.36v57.424h-25.768z" fill="" p-id="46903"></path></svg>