<?xml version="1.0" standalone="no"?><!DOCTYPE svg PUBLIC "-//W3C//DTD SVG 1.1//EN" "http://www.w3.org/Graphics/SVG/1.1/DTD/svg11.dtd"><svg t="1648015868346" class="icon" viewBox="0 0 1106 1024" version="1.1" xmlns="http://www.w3.org/2000/svg" p-id="56863" xmlns:xlink="http://www.w3.org/1999/xlink" width="216.015625" height="200"><defs><style type="text/css">@font-face { font-family: feedback-iconfont; src: url("//at.alicdn.com/t/font_1031158_u69w8yhxdu.woff2?t=1630033759944") format("woff2"), url("//at.alicdn.com/t/font_1031158_u69w8yhxdu.woff?t=1630033759944") format("woff"), url("//at.alicdn.com/t/font_1031158_u69w8yhxdu.ttf?t=1630033759944") format("truetype"); }
</style></defs><path d="M982.32875 574.32875v-50.8659375l-14.1496875 1.6125-183.58125 31.8796875v-318.80625l-51.583125 5.9109375v308.596875L573.2534375 503.403125a25.87125 25.87125 0 0 0-32.23875 17.015625c-1.9696875 6.4471875-1.2534375 13.6115625 1.790625 19.700625s8.596875 10.5675 15.225 12.5371875l174.984375 53.9109375v302.506875l33.6721875 9.135 17.7309375-1.970625v-306.984375l172.6565625-30.09 14.686875-2.686875v-0.358125l10.5675-1.790625z" p-id="56864"></path><path d="M957.4325 579.164375l14.686875-2.5078125v-0.178125l-14.686875 2.6859375z m24.89625-4.835625l-10.3884375 1.790625v0.358125l10.3875-1.9696875v-0.1790625z" p-id="56865"></path><path d="M1067.9403125 558.5675v-44.9559375l-85.6125 9.6721875v50.8659375l18.9853125-3.403125 66.6271875-12.1790625z m-99.58125-33.493125l14.14875-1.6125v-0.894375l-14.1496875 2.506875z m13.96875 49.4334375l-10.3875 1.9696875v0.1790625l10.3875-1.790625v-0.358125z m-9.4921875 81.313125v2.14875l1.074375-0.178125v-2.1496875l-1.074375 0.1790625z m28.4775-84.8953125l-18.984375 3.403125v0.178125l18.984375-3.58125z" p-id="56866"></path><path d="M398.448125 819.3434375l-6.2690625-1.6125 6.2690625 1.6125z m0-128.955c0-9.135-4.8365625-17.731875-12.89625-22.3884375-7.880625-4.6565625-17.7309375-4.6565625-25.790625 0s-12.8953125 13.074375-12.8953125 22.3875v115.164375l45.313125 12.1790625 6.2690625 1.6125V690.3875zM784.775 916.0596875l-17.7309375 1.970625 17.7309375 4.835625v-6.80625z m273.6721875-407.8209375l-77.19375 14.5078125v51.9403125l77.19375-13.6125v-52.835625z" p-id="56867"></path><path d="M392.1790625 817.551875l-45.313125-12.178125v15.58125l34.3875-6.268125zM379.1046875 110.80625c78.0890625 0 141.67125 63.58125 141.67125 141.67125 0 20.955-5.551875 43.880625-15.403125 62.686875-6.80625 12.5371875-65.19375 97.2534375-125.91 183.9403125-55.7015625-78.80625-118.925625-169.6125-126.2690625-183.5821875-10.3875-20.7759375-15.76125-41.9109375-15.76125-63.2240625 0-77.91 63.5821875-141.4921875 141.6721875-141.4921875zM184.23875 350.448125c12.5371875 25.074375 128.596875 188.596875 163.880625 238.209375 7.164375 10.2084375 18.984375 16.2975 31.5225 16.2975h0.1790625c12.5371875 0 24.358125-6.0890625 31.5225-16.4775 35.1046875-49.9696875 150.80625-214.7465625 162.62625-237.4921875 15.5821875-30.09 24.18-65.015625 24.18-98.32875C597.96875 131.76125 499.8209375 33.6125 379.1046875 33.6125S160.23875 131.76125 160.23875 252.4775c0 33.4921875 8.0596875 66.2690625 24 97.970625z" p-id="56868"></path><path d="M314.80625 252.4775a64.2984375 64.2984375 0 1 0 128.596875 0 64.2984375 64.2984375 0 1 0-128.596875 0zM87.880625 901.015625c0 19.5215625-12.5371875 35.461875-27.9403125 35.461875S32 920.5371875 32 901.015625V128c0-19.5225 12.5371875-35.4628125 27.9403125-35.4628125S87.880625 108.2984375 87.880625 128v773.015625z m696.71625 39.0440625c0 18.984375-11.4628125 34.3875-25.790625 34.3875-14.1496875 0-25.790625-15.403125-25.790625-34.3875V188.1790625c0-18.984375 11.461875-34.3875 25.790625-34.3875 14.14875 0 25.790625 15.403125 25.790625 34.3875v751.880625z m-386.14875-84.71625c0 3.045-11.4628125 5.551875-25.790625 5.551875-14.1496875 0-25.7915625-2.506875-25.7915625-5.551875V734.6271875c0-3.045 11.4628125-5.5528125 25.790625-5.5528125 14.1496875 0 25.790625 2.5078125 25.790625 5.5528125v120.71625z m669.4921875 45.67125c0 19.5225-12.5371875 35.4628125-27.9403125 35.4628125s-27.9403125-15.76125-27.9403125-35.4628125V128c0-19.5225 12.5371875-35.4628125 27.9403125-35.4628125s27.9403125 15.76125 27.9403125 35.4628125v773.015625z" p-id="56869"></path><path d="M60.2984375 936.2984375c-7.164375 1.2534375-15.403125-9.8503125-18.0890625-25.074375s0.8953125-28.4775 8.0596875-29.9109375L337.371875 829.015625c7.3434375-1.2534375 15.403125 9.85125 18.09 25.0753125s-0.8953125 28.4775-8.0596875 29.91L60.2984375 936.2984375z m699.2240625 53.731875c-7.164375 1.2534375-15.403125-9.85125-18.09-25.0753125s0.89625-28.4775 8.0596875-29.91l287.1046875-52.2984375c7.3434375-1.254375 15.403125 9.8503125 18.09 25.074375s-0.89625 28.4775-8.0596875 29.91L759.5225 990.03125z m0-790.209375c-7.164375 1.2534375-15.403125-9.85125-18.09-25.074375s0.89625-28.4775 8.0596875-29.9109375l287.1046875-52.2984375c7.3434375-1.2534375 15.403125 9.85125 18.09 25.074375s-0.89625 28.4784375-8.0596875 29.9109375l-287.1046875 52.2984375z" p-id="56870"></path><path d="M621.4325 159.164375c-3.403125-1.074375-2.6859375-13.970625 1.970625-28.6565625 4.4775-14.686875 11.1046875-25.790625 14.506875-24.7171875l137.9109375 42.628125c3.403125 1.0734375 2.686875 13.96875-1.970625 28.655625-4.4775 14.686875-11.10375 25.790625-14.506875 24.71625l-137.9109375-42.62625zM335.403125 883.641875c-10.3875-2.686875-15.9403125-17.015625-12-31.880625 3.76125-15.045 15.403125-24.8953125 25.790625-22.209375L763.641875 935.403125c10.3875 2.686875 15.9403125 17.015625 12 31.880625-3.76125 15.045-15.403125 24.8953125-25.970625 22.209375L335.403125 883.6409375z" p-id="56871"></path></svg>