<?xml version="1.0" standalone="no"?><!DOCTYPE svg PUBLIC "-//W3C//DTD SVG 1.1//EN" "http://www.w3.org/Graphics/SVG/1.1/DTD/svg11.dtd"><svg class="icon" width="200px" height="200.00px" viewBox="0 0 1024 1024" version="1.1" xmlns="http://www.w3.org/2000/svg"><path d="M596.260571 71.68c23.259429 0 43.008 19.748571 43.008 43.008v93.330286c21.504 8.923429 43.008 21.504 62.610286 37.741714l80.603429-46.665143c19.748571-12.580571 46.518857-5.412571 59.099428 16.091429l87.771429 150.820571c12.580571 19.748571 5.412571 46.665143-16.091429 59.245714l-80.603428 46.665143c1.755429 14.336 1.755429 25.161143 1.755428 37.741715v5.997714c0 11.556571-0.292571 20.918857-1.755428 31.744l80.603428 46.665143c19.748571 12.580571 28.672 39.497143 10.678857 59.245714l-87.771428 150.820571c-10.678857 19.748571-37.595429 28.672-59.099429 16.091429l-80.603428-46.665143c-19.748571 16.091429-41.106286 26.916571-62.610286 37.741714v95.085715c0 23.405714-19.748571 43.008-43.008 43.008H415.451429c-23.259429 0-43.008-19.748571-43.008-43.008v-95.085715c-21.504-10.825143-43.008-21.504-62.610286-37.741714l-80.603429 46.665143c-19.748571 12.580571-46.518857 5.412571-59.099428-16.091429l-87.771429-150.820571c-14.336-19.748571-7.168-46.665143 16.091429-59.245714l80.603428-46.665143c-1.755429-14.336-1.755429-25.161143-1.755428-37.741714v-5.997715c0-11.556571 0.292571-20.918857 1.755428-31.744l-80.603428-46.665143c-19.748571-10.825143-28.672-37.741714-16.091429-59.245714L175.542857 217.088c10.678857-19.748571 37.595429-28.672 59.099429-16.091429l80.603428 46.665143c19.748571-16.091429 41.106286-26.916571 62.610286-37.741714v-95.085714c0-23.405714 19.748571-43.008 43.008-43.008h175.396571z m-9.801142 52.662857H430.518857v118.052572l-29.110857 14.628571c-28.818286 14.482286-40.374857 21.065143-52.809143 31.305143l-28.233143 23.113143-31.597714-18.285715-72.411429-41.984-83.236571 133.266286 103.131429 59.830857-4.973715 35.108572c-0.438857 2.779429-0.731429 5.412571-0.877714 8.192l-0.146286 3.072c-0.146286 3.072-0.146286 6.729143-0.292571 12.434285v17.846858c0.146286 7.314286 0.438857 13.165714 1.316571 19.894857l4.242286 34.669714-30.134857 17.408-72.704 42.130286 78.409143 134.729143 103.862857-60.123429 28.233143 23.113143c12.434286 10.24 23.990857 16.822857 52.809143 31.305143l29.110857 14.628571v118.052572h155.940571v-118.052572l29.110857-14.628571c28.818286-14.482286 40.374857-21.065143 52.809143-31.305143l28.233143-23.113143 31.597714 18.285714 72.265143 41.837715 79.725714-137.069715-99.474285-57.490285 4.973714-35.108572c0.438857-2.779429 0.731429-5.412571 0.877714-8.192l0.146286-3.072c0.146286-3.072 0.146286-6.729143 0.292571-12.434286v-12.580571-5.266286c-0.146286-7.314286-0.438857-13.165714-1.316571-19.894857l-4.242286-34.669714 30.134857-17.408 72.704-42.130286-78.409142-134.729143-103.862858 60.123429-28.233142-23.113143c-15.067429-12.434286-32.036571-22.528-49.590858-29.842286l-32.329142-13.458285V124.342857z m-72.411429 228.205714c88.210286 0 157.988571 69.778286 157.988571 157.988572 0 88.210286-69.778286 157.988571-157.988571 157.988571-88.210286 0-157.988571-69.778286-157.988571-157.988571 0-88.064 69.778286-157.988571 157.988571-157.988572z m0 43.885715c-63.926857 0-114.102857 50.176-114.102857 114.102857s50.176 114.102857 114.102857 114.102857c63.926857 0 114.102857-50.176 114.102857-114.102857s-50.176-114.102857-114.102857-114.102857z" /></svg>