<?xml version="1.0" standalone="no"?><!DOCTYPE svg PUBLIC "-//W3C//DTD SVG 1.1//EN" "http://www.w3.org/Graphics/SVG/1.1/DTD/svg11.dtd"><svg t="1648001786694" class="icon" viewBox="0 0 1024 1024" version="1.1" xmlns="http://www.w3.org/2000/svg" p-id="11824" xmlns:xlink="http://www.w3.org/1999/xlink" width="200" height="200"><defs><style type="text/css">@font-face { font-family: feedback-iconfont; src: url("//at.alicdn.com/t/font_1031158_u69w8yhxdu.woff2?t=1630033759944") format("woff2"), url("//at.alicdn.com/t/font_1031158_u69w8yhxdu.woff?t=1630033759944") format("woff"), url("//at.alicdn.com/t/font_1031158_u69w8yhxdu.ttf?t=1630033759944") format("truetype"); }
</style></defs><path d="M884.8 512H625.6L496.8 736l129.6 224h258.4l129.6-224-129.6-224z m-37.6 384h-184L570.4 736l92-160h184.8l92 160-92 160z" p-id="11825"></path><path d="M768 736m-64 0a64 64 0 1 0 128 0 64 64 0 1 0-128 0Z" p-id="11826"></path><path d="M139.2 562.4l-63.2 16.8c9.6 91.2 49.6 180 119.2 249.6s158.4 109.6 249.6 119.2l16.8-63.2c-80.8-6.4-160-40-221.6-101.6-60.8-61.6-95.2-140-100.8-220.8z" p-id="11827"></path><path d="M266.4 528l-64 16.8c2.4 70.4 29.6 139.2 83.2 192.8s123.2 80.8 192.8 83.2l16.8-64c-59.2 3.2-119.2-18.4-164-64C285.6 648 264 588 266.4 528zM512 603.2L359.2 449.6l352-281.6L856 312.8 748 448h82.4l111.2-140-225.6-225.6-452.8 361.6 216 216z" p-id="11828"></path></svg>