<?xml version="1.0" standalone="no"?><!DOCTYPE svg PUBLIC "-//W3C//DTD SVG 1.1//EN" "http://www.w3.org/Graphics/SVG/1.1/DTD/svg11.dtd"><svg t="1648005563723" class="icon" viewBox="0 0 1024 1024" version="1.1" xmlns="http://www.w3.org/2000/svg" p-id="41853" xmlns:xlink="http://www.w3.org/1999/xlink" width="200" height="200"><defs><style type="text/css">@font-face { font-family: feedback-iconfont; src: url("//at.alicdn.com/t/font_1031158_u69w8yhxdu.woff2?t=1630033759944") format("woff2"), url("//at.alicdn.com/t/font_1031158_u69w8yhxdu.woff?t=1630033759944") format("woff"), url("//at.alicdn.com/t/font_1031158_u69w8yhxdu.ttf?t=1630033759944") format("truetype"); }
</style></defs><path d="M760.6272 952.32H263.5776c-5.3248 0-10.24-2.8672-12.9024-7.3728L2.048 517.5296c-2.6624-4.7104-2.6624-10.4448 0-14.9504L250.6752 74.9568c2.6624-4.5056 7.5776-7.3728 12.9024-7.3728h497.0496c5.3248 0 10.24 2.8672 12.9024 7.3728L1021.952 502.3744c2.6624 4.7104 2.6624 10.4448 0 14.9504L773.5296 944.9472c-2.6624 4.5056-7.5776 7.3728-12.9024 7.3728z m-488.448-28.672h479.8464l239.8208-413.696L752.0256 96.256H272.1792L32.1536 509.952l240.0256 413.696z" fill="#333333" p-id="41854"></path><path d="M458.5472 758.5792h-108.9536c-45.2608 0-81.92-36.6592-81.92-81.92V429.8752c0-45.2608 36.6592-81.92 81.92-81.92h108.9536c45.2608 0 81.92 36.6592 81.92 81.92v246.784c0 45.056-36.6592 81.92-81.92 81.92z m-108.9536-360.8576c-17.8176 0-32.1536 14.5408-32.1536 32.1536v246.784c0 17.8176 14.5408 32.1536 32.1536 32.1536h108.9536c17.8176 0 32.1536-14.5408 32.1536-32.1536V429.8752c0-17.8176-14.5408-32.1536-32.1536-32.1536h-108.9536zM474.3168 341.8112h-140.288c-28.0576 0-50.7904-22.7328-50.7904-50.7904v-9.6256c0-28.0576 22.7328-50.7904 50.7904-50.7904h140.288c28.0576 0 50.7904 22.7328 50.7904 50.7904v9.6256c-0.2048 28.0576-22.9376 50.7904-50.7904 50.7904zM334.0288 280.576c-0.6144 0-1.024 0.6144-1.024 1.024v9.6256c0 0.6144 0.6144 1.024 1.024 1.024h140.288c0.6144 0 1.024-0.6144 1.024-1.024v-9.6256c0-0.4096-0.6144-1.024-1.024-1.024h-140.288zM697.7536 758.5792h-79.872c-36.6592 0-66.56-29.9008-66.56-66.56v-180.6336c0-36.6592 29.9008-66.56 66.56-66.56h79.872c36.6592 0 66.56 29.9008 66.56 66.56v180.6336c0 36.6592-29.9008 66.56-66.56 66.56z m-79.872-264.3968c-9.216 0-16.9984 7.7824-16.9984 16.9984v180.6336c0 9.216 7.7824 16.9984 16.9984 16.9984h79.872c9.216 0 16.9984-7.7824 16.9984-16.9984v-180.6336c0-9.216-7.7824-16.9984-16.9984-16.9984h-79.872zM717.0048 430.8992h-118.1696c-19.8656 0-36.0448-16.1792-36.0448-36.0448 0-19.8656 16.1792-36.0448 36.0448-36.0448h118.1696c19.8656 0 36.0448 16.1792 36.0448 36.0448 0 19.8656-16.1792 36.0448-36.0448 36.0448z" fill="#333333" p-id="41855"></path></svg>