<?xml version="1.0" standalone="no"?><!DOCTYPE svg PUBLIC "-//W3C//DTD SVG 1.1//EN" "http://www.w3.org/Graphics/SVG/1.1/DTD/svg11.dtd"><svg t="1648014988827" class="icon" viewBox="0 0 1024 1024" version="1.1" xmlns="http://www.w3.org/2000/svg" p-id="49356" xmlns:xlink="http://www.w3.org/1999/xlink" width="200" height="200"><defs><style type="text/css">@font-face { font-family: feedback-iconfont; src: url("//at.alicdn.com/t/font_1031158_u69w8yhxdu.woff2?t=1630033759944") format("woff2"), url("//at.alicdn.com/t/font_1031158_u69w8yhxdu.woff?t=1630033759944") format("woff"), url("//at.alicdn.com/t/font_1031158_u69w8yhxdu.ttf?t=1630033759944") format("truetype"); }
</style></defs><path d="M757.248 312.100571v355.913143a44.617143 44.617143 0 0 1-89.380571 0V312.100571a44.617143 44.617143 0 1 1 89.380571 0z m-222.866286 0v355.913143a44.617143 44.617143 0 1 1-88.868571 0V312.100571a44.617143 44.617143 0 1 1 88.868571 0z m-222.354285 0v355.913143a42.642286 42.642286 0 0 1-44.690286 44.617143 42.642286 42.642286 0 0 1-44.617143-44.617143V312.100571a42.642286 42.642286 0 0 1 44.617143-44.617142 42.642286 42.642286 0 0 1 44.617143 44.617142zM914.285714 67.145143H699.026286A35.620571 35.620571 0 0 1 663.405714 31.524571c0-22.089143 18.066286-31.158857 40.155429-31.158857h244.955428a32.182857 32.182857 0 0 1 31.085715 35.693715v244.955428a32.182857 32.182857 0 0 1-35.620572 31.085714 33.133714 33.133714 0 0 1-35.620571-35.620571V67.145143h5.997714zM67.072 912.969143H280.868571a35.620571 35.620571 0 0 1 35.620572 35.620571c0 22.089143-18.066286 31.158857-40.155429 31.158857H35.913143a33.133714 33.133714 0 0 1-35.620572-35.693714V699.099429a32.182857 32.182857 0 0 1 35.620572-31.085715 33.133714 33.133714 0 0 1 35.620571 35.620572v209.334857H67.072z m845.750857 0H699.026286a35.620571 35.620571 0 0 0-35.620572 35.620571 33.133714 33.133714 0 0 0 35.620572 35.620572h244.955428a35.108571 35.108571 0 0 0 35.620572-35.620572V703.122286a35.620571 35.620571 0 0 0-35.620572-35.620572 33.133714 33.133714 0 0 0-35.620571 35.620572v209.334857l4.461714 0.512zM67.072 67.145143H280.868571a30.646857 30.646857 0 0 0 31.158858-31.085714 35.108571 35.108571 0 0 0-35.108572-35.693715H35.84a33.133714 33.133714 0 0 0-35.620571 35.693715v244.955428a32.182857 32.182857 0 0 0 35.620571 31.085714 33.133714 33.133714 0 0 0 35.620571-35.620571V67.145143H67.072z" fill="#909399" p-id="49357"></path></svg>