<?xml version="1.0" standalone="no"?><!DOCTYPE svg PUBLIC "-//W3C//DTD SVG 1.1//EN" "http://www.w3.org/Graphics/SVG/1.1/DTD/svg11.dtd"><svg t="1648003497965" class="icon" viewBox="0 0 1024 1024" version="1.1" xmlns="http://www.w3.org/2000/svg" p-id="18025" xmlns:xlink="http://www.w3.org/1999/xlink" width="200" height="200"><defs><style type="text/css">@font-face { font-family: feedback-iconfont; src: url("//at.alicdn.com/t/font_1031158_u69w8yhxdu.woff2?t=1630033759944") format("woff2"), url("//at.alicdn.com/t/font_1031158_u69w8yhxdu.woff?t=1630033759944") format("woff"), url("//at.alicdn.com/t/font_1031158_u69w8yhxdu.ttf?t=1630033759944") format("truetype"); }
</style></defs><path d="M607.541495 770.563894c-2.991124 0-5.765307-0.976234-8.025791-2.823302l-71.469752-55.834656c-6.547113-5.313006-3.207042-16.470113 0.417509-20.960381 0.657986-0.827855 6.895037-8.44023 13.834076-8.44023 2.052752 0 3.956102 0.661056 5.505387 1.907443l57.988716 45.221948 71.046103-81.83175c2.122337-2.417049 5.092995-3.734044 8.381901-3.734044 3.374864 0 6.92983 1.39272 9.756201 3.820002 2.978844 2.563382 6.182816 7.835456 6.53995 12.95301 0.258896 3.712555-1.079588 6.124488-2.275833 7.509021l-82.043574 97.697089C614.75785 768.92558 611.243817 770.563894 607.541495 770.563894z" p-id="18026"></path><path d="M612.829941 858.33696c-82.373079 0-149.390425-67.004043-149.390425-149.363819 0-82.390475 67.017346-149.420101 149.390425-149.420101 82.360799 0 149.365866 67.029626 149.365866 149.420101 0.001023 39.84345-15.549138 77.335343-43.788296 105.5745C690.167331 842.786799 652.673391 858.33696 612.829941 858.33696zM612.829941 598.295412c-61.009516 0-110.647029 49.65184-110.647029 110.677729 0 60.996213 49.637514 110.62247 110.647029 110.62247 60.998259 0 110.624517-49.625234 110.624517-110.62247C723.455481 647.947252 673.8282 598.295412 612.829941 598.295412z" p-id="18027"></path><path d="M234.416426 370.557594c-17.876136 0-32.42141-14.544251-32.42141-32.42141 0-17.876136 14.544251-32.419364 32.42141-32.419364 17.877159 0 32.42141 14.543228 32.42141 32.419364C266.836813 356.013343 252.293585 370.557594 234.416426 370.557594z" p-id="18028"></path><path d="M316.287061 366.229009c-10.717086 0-19.11229-12.32777-19.11229-28.065196 0-15.737426 8.395204-28.065196 19.11229-28.065196l319.391261 0c10.718109 0 19.111267 12.32777 19.111267 28.065196 0 15.736403-8.393157 28.065196-19.111267 28.065196L316.287061 366.229009z" p-id="18029"></path><path d="M316.287061 463.803301c-10.717086 0-19.11229-12.32777-19.11229-28.065196s8.395204-28.065196 19.11229-28.065196l319.391261 0c10.718109 0 19.111267 12.32777 19.111267 28.065196s-8.393157 28.065196-19.111267 28.065196L316.287061 463.803301z" p-id="18030"></path><path d="M234.416426 468.158493c-17.876136 0-32.42141-14.544251-32.42141-32.422434 0-17.876136 14.544251-32.419364 32.42141-32.419364 17.877159 0 32.42141 14.543228 32.42141 32.419364C266.836813 453.614242 252.293585 468.158493 234.416426 468.158493z" p-id="18031"></path><path d="M220.91697 959.382307c-85.487 0-155.036006-69.547982-155.036006-155.034982l0-488.393349c0-85.487 69.549006-155.034982 155.036006-155.034982l490.941382 0c85.485977 0 155.033959 69.547982 155.033959 155.034982l0 488.393349c-0.001023 85.487-69.549006 155.034982-155.033959 155.034982L220.91697 959.382307zM233.924215 219.072461c-60.558238 0-109.824291 49.266054-109.824291 109.822245l0 462.512912c0 60.555168 49.266054 109.820198 109.824291 109.820198l464.925868 0c60.557214 0 109.823268-49.266054 109.823268-109.820198L808.673351 328.895729c0-60.557214-49.267077-109.822245-109.823268-109.822245L233.924215 219.073484z" p-id="18032"></path><path d="M941.813674 814.313304c-17.08205 0-30.333866-12.806677-30.333866-23.823592L911.479809 219.869616c-9.263991-59.711963-38.98285-89.420589-99.257631-99.240235l-596.448344 1.464351c-12.794397 0-19.385513-19.709901-19.385513-28.119431 0-8.408507 6.591115-28.118408 19.371186-28.118408l596.907809-1.465374c85.501326 0 155.048285 69.547982 155.048285 155.033959l0 571.065234C967.716624 800.47718 958.715623 814.313304 941.813674 814.313304z" p-id="18033"></path></svg>