<?xml version="1.0" standalone="no"?><!DOCTYPE svg PUBLIC "-//W3C//DTD SVG 1.1//EN" "http://www.w3.org/Graphics/SVG/1.1/DTD/svg11.dtd"><svg t="1648015526907" class="icon" viewBox="0 0 1024 1024" version="1.1" xmlns="http://www.w3.org/2000/svg" p-id="55158" xmlns:xlink="http://www.w3.org/1999/xlink" width="200" height="200"><defs><style type="text/css">@font-face { font-family: feedback-iconfont; src: url("//at.alicdn.com/t/font_1031158_u69w8yhxdu.woff2?t=1630033759944") format("woff2"), url("//at.alicdn.com/t/font_1031158_u69w8yhxdu.woff?t=1630033759944") format("woff"), url("//at.alicdn.com/t/font_1031158_u69w8yhxdu.ttf?t=1630033759944") format("truetype"); }
</style></defs><path d="M470.09178 526.66c6.66 16.07 22.2 26.47 39.6 26.49h0.09c11.26 0 22.29-4.58 30.24-12.55l421.46-421.39c15.95-16.99 15.54-43.21-0.95-59.69-8.11-8.11-18.89-12.57-30.35-12.57-10.95 0-21.37 4.13-29.4 11.66L479.37178 479.93c-12.29 12.32-15.94 30.66-9.28 46.73z" fill="#2c2c2c" p-id="55159"></path><path d="M968.41178 279.8a42.917 42.917 0 0 0-36.14-24.48c-0.88-0.05-1.78-0.08-2.66-0.08-14.77 0-28.31 7.44-36.23 19.91-8.38 13.2-8.91 29.92-1.42 43.58 30.46 59.55 46.45 126.39 46.24 193.28 0 57.54-11.27 113.35-33.5 165.9-21.47 50.75-52.21 96.33-91.36 135.48s-84.74 69.87-135.5 91.34c-52.55 22.22-108.38 33.49-165.93 33.49-57.55 0-113.38-11.27-165.93-33.49-50.76-21.47-96.35-52.2-135.5-91.34-39.15-39.14-69.89-84.72-91.36-135.48-22.23-52.54-33.5-108.36-33.5-165.9 0-57.54 11.27-113.36 33.5-165.9 21.47-50.75 52.21-96.33 91.36-135.48 39.15-39.14 84.74-69.87 135.5-91.34C398.53178 97.06 454.36178 85.8 511.91178 85.8h1.11c62.42 0 125.2 14.17 181.59 41.01a42.533 42.533 0 0 0 17.33 3.67c16.49 0 31.71-9.62 38.79-24.51 10.05-21.15 1.57-46.03-19.35-56.67C662.32178 16.59 588.60178 0 512.28178 0 448.24178 0 385.53178 11.8 325.90178 35.06c-60.79 23.72-115.83 58.39-163.58 103.06C87.01178 208.56 35.23178 298.96 12.58178 399.55-10.06822 500.14-2.02822 604.01 35.82178 699.92c37.85 95.91 102.91 177.28 188.16 235.3 85.24 58.03 184.81 88.73 287.93 88.78 69.1-0.08 136.13-13.67 199.23-40.39 60.95-25.81 115.69-62.73 162.7-109.74 47.01-47.01 83.94-101.74 109.76-162.67 26.73-63.08 40.32-130.1 40.4-199.19 0.24-80.39-18.99-160.71-55.59-232.21z" fill="#2c2c2c" p-id="55160"></path><path d="M512.08178 311.92c13.98 0 28.02 1.48 41.7 4.4 3.32 0.81 6.73 1.22 10.14 1.22 11.98 0 23.5-5.06 31.61-13.89a42.911 42.911 0 0 0 9.08-42.67c-4.98-14.81-17.62-25.76-32.93-28.55a286.445 286.445 0 0 0-59.5-6.27c-42.87 0-85.96 9.89-124.6 28.59-39.06 18.91-73.84 46.98-100.59 81.18-33.03 42.23-53.46 92.72-59.1 146.03-5.63 53.31 3.79 106.97 27.26 155.17 23.47 48.2 59.9 88.71 105.34 117.15a285.589 285.589 0 0 0 151.42 43.56c42.34-0.04 84.92-9.7 123.12-27.95s72.47-45.3 99.11-78.21c26.63-32.91 45.92-72.07 55.78-113.24 9.87-41.17 10.42-84.81 1.62-126.17-2.84-15.33-13.8-27.92-28.59-32.86a42.765 42.765 0 0 0-13.6-2.21c-10.78 0-21.08 4.01-29.02 11.29-11.49 10.54-16.36 26.5-12.73 41.61 9.06 42.49 4.25 85.8-13.92 125.26-18.17 39.46-47.95 71.28-86.13 92.02-29.21 15.86-62.18 24.25-95.36 24.25-53.43 0-103.65-20.79-141.41-58.54-30.72-30.72-50.25-69.68-56.47-112.67-6.22-42.99 1.45-85.89 22.19-124.06 35.02-64.42 102.29-104.44 175.58-104.44z" fill="#2c2c2c" p-id="55161"></path></svg>