<?xml version="1.0" standalone="no"?><!DOCTYPE svg PUBLIC "-//W3C//DTD SVG 1.1//EN" "http://www.w3.org/Graphics/SVG/1.1/DTD/svg11.dtd"><svg t="1648016264307" class="icon" viewBox="0 0 1024 1024" version="1.1" xmlns="http://www.w3.org/2000/svg" p-id="57895" xmlns:xlink="http://www.w3.org/1999/xlink" width="200" height="200"><defs><style type="text/css">@font-face { font-family: feedback-iconfont; src: url("//at.alicdn.com/t/font_1031158_u69w8yhxdu.woff2?t=1630033759944") format("woff2"), url("//at.alicdn.com/t/font_1031158_u69w8yhxdu.woff?t=1630033759944") format("woff"), url("//at.alicdn.com/t/font_1031158_u69w8yhxdu.ttf?t=1630033759944") format("truetype"); }
</style></defs><path d="M787.2 569.6c12.8 6.4 32 0 44.8-12.8 6.4-12.8 0-32-12.8-44.8-38.4-19.2-76.8-32-115.2-44.8 12.8-6.4 25.6-19.2 38.4-32 25.6-25.6 44.8-51.2 57.6-83.2 12.8-32 19.2-64 19.2-102.4 0-19.2 0-32-6.4-51.2C793.6 96 710.4 19.2 614.4 0h-57.6c-38.4 0-70.4 6.4-102.4 19.2-32 12.8-57.6 32-76.8 57.6-12.8 12.8-25.6 25.6-32 38.4-19.2 25.6-32 57.6-38.4 89.6-6.4 19.2-6.4 32-6.4 51.2 0 89.6 44.8 166.4 115.2 211.2-230.4 64-403.2 275.2-403.2 524.8 0 19.2 12.8 32 32 32s32-12.8 32-32C76.8 729.6 288 512 556.8 512c76.8 0 160 19.2 230.4 57.6zM364.8 256c0-108.8 83.2-192 192-192s192 83.2 192 192-83.2 192-192 192-192-83.2-192-192z" p-id="57896"></path><path d="M940.8 768H768c-12.8 0-25.6 6.4-25.6 19.2l-57.6 108.8-102.4-236.8c-6.4-12.8-19.2-19.2-25.6-19.2-12.8 0-25.6 6.4-32 19.2L473.6 768H313.6c-19.2 0-32 12.8-32 32s12.8 32 32 32h179.2c12.8 0 25.6-6.4 32-19.2l32-70.4 96 236.8c6.4 12.8 12.8 19.2 25.6 19.2s25.6-6.4 25.6-19.2l76.8-153.6h147.2c19.2 0 32-12.8 32-32s-6.4-25.6-19.2-25.6z" p-id="57897"></path></svg>