<?xml version="1.0" standalone="no"?><!DOCTYPE svg PUBLIC "-//W3C//DTD SVG 1.1//EN" "http://www.w3.org/Graphics/SVG/1.1/DTD/svg11.dtd"><svg t="1648002760873" class="icon" viewBox="0 0 1024 1024" version="1.1" xmlns="http://www.w3.org/2000/svg" p-id="14278" xmlns:xlink="http://www.w3.org/1999/xlink" width="200" height="200"><defs><style type="text/css">@font-face { font-family: feedback-iconfont; src: url("//at.alicdn.com/t/font_1031158_u69w8yhxdu.woff2?t=1630033759944") format("woff2"), url("//at.alicdn.com/t/font_1031158_u69w8yhxdu.woff?t=1630033759944") format("woff"), url("//at.alicdn.com/t/font_1031158_u69w8yhxdu.ttf?t=1630033759944") format("truetype"); }
</style></defs><path d="M855.925652 961.886679c-27.01469 0-52.903767-10.744479-71.936844-29.982212L633.259119 781.174778 610.951534 803.482362 556.410513 747.713401l67.025082-67.025083-78.895173-78.588188-107.649446 107.547117c19.033077 69.890277-3.78615 144.487659-58.531827 191.865694-54.848006 47.378035-131.901269 59.145798-198.312382 30.186869L127.449985 909.392225l89.332667-89.332667v-24.763465H194.475067l-90.048965 90.662936-22.307585-52.494454c-28.754272-66.411112-16.986509-143.362047 30.391526-198.107725S234.383132 557.894274 304.17108 576.825022l107.649446-107.649445L255.462776 312.715499l-22.307585 22.307585-155.948436-155.027481 99.360848-99.667832L331.595083 235.45758l-22.307584 22.307584L465.645248 414.122914 573.294694 306.473469c-18.930748-69.890277 3.888478-144.487659 58.736484-191.865694 54.848006-47.275707 132.003597-58.941141 198.41471-29.982213l52.494454 22.307585-90.458279 90.969921v22.307585h24.763465l89.332667-89.332668 22.307585 52.494454c28.651944 66.308784 16.781853 143.15739-30.493854 197.80074-47.275707 54.64335-121.566104 77.462576-191.354053 58.634156L599.490756 547.45678l78.383532 79.304487 67.025082-67.025082 54.950335 54.950334-22.307584 22.307585 150.832017 150.832018c29.265914 29.163585 38.066154 73.164785 22.102928 111.230938-15.860897 38.27081-53.210752 63.034276-94.551414 62.829619zM643.696612 725.303488l172.934946 172.934945c21.898271 20.670331 56.280604 20.158689 77.564904-1.125612 21.284301-21.284301 21.795943-55.666633 1.125613-77.564905l-172.934946-172.934945-78.895173 78.895173 0.204656-0.204656zM208.494054 893.326671c51.573499 17.805136 108.877386 4.40012 147.250525-34.48466 38.373139-38.782452 51.164185-96.188668 32.847407-147.659839l-4.911762-13.814329 150.320376-150.320376 160.348556-160.348556L708.163486 391.610673c51.47117 18.419107 108.877386 5.730389 147.762166-32.642751s52.289797-95.677026 34.484661-147.352853L836.073948 265.542121l-90.969921 1.330268 1.330269-88.207055 55.666633-55.666633c-51.675827-17.907465-109.082043-4.604777-147.557509 34.280004-38.475467 38.884781-51.164185 96.495653-32.64275 147.966823l4.911761 13.81433L466.975517 479.613071 316.859798 629.72879l-13.81433-4.911762c-51.675827-19.033077-109.696013-6.446687-148.887778 32.233437s-52.494454 96.495653-34.075348 148.478465l56.485261-56.075947 88.207055-1.125612-1.330269 90.969921-54.950335 54.029379z m-66.104127-713.331068l89.332667 89.332667 22.307585-22.307584 11.870091-11.665435-89.332667-89.332667-34.177676 33.973019z m0 0" fill="" p-id="14279"></path></svg>