<?xml version="1.0" standalone="no"?><!DOCTYPE svg PUBLIC "-//W3C//DTD SVG 1.1//EN" "http://www.w3.org/Graphics/SVG/1.1/DTD/svg11.dtd"><svg t="1648004470297" class="icon" viewBox="0 0 1024 1024" version="1.1" xmlns="http://www.w3.org/2000/svg" p-id="38935" xmlns:xlink="http://www.w3.org/1999/xlink" width="200" height="200"><defs><style type="text/css">@font-face { font-family: feedback-iconfont; src: url("//at.alicdn.com/t/font_1031158_u69w8yhxdu.woff2?t=1630033759944") format("woff2"), url("//at.alicdn.com/t/font_1031158_u69w8yhxdu.woff?t=1630033759944") format("woff"), url("//at.alicdn.com/t/font_1031158_u69w8yhxdu.ttf?t=1630033759944") format("truetype"); }
</style></defs><path d="M310.4 201.6l25.6 25.6c6.4 0 9.6-3.2 16-3.2h320c6.4 0 12.8 0 16 3.2l25.6-25.6c12.8-12.8 32-12.8 44.8 0 12.8 12.8 12.8 28.8 3.2 41.6l-3.2 3.2-25.6 25.6c0 6.4 3.2 9.6 3.2 16v448c0 6.4 0 12.8-3.2 16l25.6 25.6 3.2 3.2c9.6 12.8 9.6 32-3.2 41.6-12.8 12.8-32 12.8-44.8 0l-25.6-25.6c-6.4 0-9.6 3.2-16 3.2H352c-6.4 0-12.8 0-16-3.2l-25.6 25.6c-12.8 12.8-32 12.8-44.8 0-12.8-12.8-12.8-32 0-44.8l25.6-25.6c0-6.4-3.2-9.6-3.2-16V288c0-6.4 0-12.8 3.2-16l-25.6-25.6c-12.8-12.8-12.8-32 0-44.8 12.8-12.8 32-12.8 44.8 0zM672 704H352v32h320v-32z m0-320H352v256h320v-256z m-96 96c19.2 0 32 12.8 32 32s-12.8 32-32 32h-128c-19.2 0-32-12.8-32-32s12.8-32 32-32h128z m96-192H352v32h320V288z" p-id="38936"></path></svg>