<?xml version="1.0" standalone="no"?><!DOCTYPE svg PUBLIC "-//W3C//DTD SVG 1.1//EN" "http://www.w3.org/Graphics/SVG/1.1/DTD/svg11.dtd"><svg t="1648015169916" class="icon" viewBox="0 0 1024 1024" version="1.1" xmlns="http://www.w3.org/2000/svg" p-id="51222" xmlns:xlink="http://www.w3.org/1999/xlink" width="200" height="200"><defs><style type="text/css">@font-face { font-family: feedback-iconfont; src: url("//at.alicdn.com/t/font_1031158_u69w8yhxdu.woff2?t=1630033759944") format("woff2"), url("//at.alicdn.com/t/font_1031158_u69w8yhxdu.woff?t=1630033759944") format("woff"), url("//at.alicdn.com/t/font_1031158_u69w8yhxdu.ttf?t=1630033759944") format("truetype"); }
</style></defs><path d="M898.853769 312.065244c0-15.233078-12.349205-27.582283-27.582282-27.582283H405.678614l6.625245-77.305073c0-21.23314 17.212016-38.446372 38.445156-38.446372h132.911159c21.23314 0 38.446372 17.213232 38.446372 38.446372l2.858331 47.693984h93.101303l-20.221169-106.789666c-6.980408-38.748017-23.154911-51.71754-51.717541-51.717541H381.382803c-28.562629 0-51.71754 23.154911-51.71754 51.717541l-9.34735 136.400755H147.997064C132.763986 284.482961 120.414781 296.832166 120.414781 312.065244L68.70089 901.545466c0 15.231862 12.349205 27.582283 27.582282 27.582282h826.711937c15.231862 0 27.582283-12.349205 27.582282-27.582282L898.853769 312.065244zM846.97446 867.509437H172.30747c-11.669287 0-21.129753-9.45925-21.129753-21.128537l39.615246-479.147442c0-11.669287 9.45925-21.129753 21.129754-21.129753h595.430415c11.669287 0 21.128537 9.45925 21.128537 21.129753l39.621328 479.147442c0 11.669287-9.460466 21.128537-21.128537 21.128537z" fill="#8a8a8a" p-id="51223"></path><path d="M516.580627 753.921809h-72.061557l-80.854268-116.71233c-2.068945-2.98726-4.426155-7.642082-7.069199-13.964466h-0.861148v130.678013h-56.890511V486.879531h56.890511v126.19469h0.861148c2.527494-5.517186 5.056204-10.285125 7.586131-14.309898l76.544879-111.884792h67.923667l-95.507166 127.401271 103.437513 139.641007zM748.971424 735.99217c-26.091086 15.059145-58.15669 22.584461-96.198031 22.584461-42.525879 0-76.08633-11.951471-100.67892-35.858062-24.596239-23.904159-36.893143-56.603461-36.893143-98.094259 0-42.064897 13.533892-76.285805 40.599243-102.661507 27.066567-26.376919 62.722721-39.565378 106.972112-39.565378 28.50303 0 53.385103 4.024773 74.64865 12.06702v53.959202c-20.688232-12.067021-45.97412-18.101139-75.85523-18.101139-25.745653 0-46.605386 8.390113-62.579197 25.169122-15.97746 16.782658-23.963758 38.904921-23.963758 66.37287 0 27.928931 7.211507 49.709411 21.635739 65.339006 14.421799 15.632028 34.105358 23.445609 59.04703 23.44561 14.825614 0 26.949801-2.297611 36.374994-6.896483v-54.821566h-53.960417v-45.685854h110.852144v132.746957z" fill="#8a8a8a" p-id="51224"></path></svg>