<?xml version="1.0" standalone="no"?><!DOCTYPE svg PUBLIC "-//W3C//DTD SVG 1.1//EN" "http://www.w3.org/Graphics/SVG/1.1/DTD/svg11.dtd"><svg t="1648015207742" class="icon" viewBox="0 0 1024 1024" version="1.1" xmlns="http://www.w3.org/2000/svg" p-id="51354" xmlns:xlink="http://www.w3.org/1999/xlink" width="200" height="200"><defs><style type="text/css">@font-face { font-family: feedback-iconfont; src: url("//at.alicdn.com/t/font_1031158_u69w8yhxdu.woff2?t=1630033759944") format("woff2"), url("//at.alicdn.com/t/font_1031158_u69w8yhxdu.woff?t=1630033759944") format("woff"), url("//at.alicdn.com/t/font_1031158_u69w8yhxdu.ttf?t=1630033759944") format("truetype"); }
</style></defs><path d="M868.266667 0.128 155.733333 0.128c-80.597333 0-146.133333 65.578667-146.133333 146.133333l0 731.434667c0 80.597333 65.578667 146.176 146.133333 146.176L868.266667 1023.872c80.597333 0 146.176-65.578667 146.176-146.176L1014.442667 146.304C1014.4 65.706667 948.821333 0.128 868.266667 0.128zM958.933333 877.696c0 50.005333-40.661333 90.666667-90.666667 90.666667L155.733333 968.362667c-50.005333 0-90.666667-40.661333-90.666667-90.666667L65.066667 146.304c0-50.005333 40.704-90.666667 90.666667-90.666667L868.266667 55.637333c50.005333 0 90.666667 40.704 90.666667 90.666667L958.933333 877.696z" p-id="51355"></path><path d="M334.933333 365.994667 254.378667 365.994667 254.378667 140.458667c0-8.149333-9.130667-14.805333-20.309333-14.805333-11.178667 0-20.309333 6.656-20.309333 14.805333l0 225.536L133.248 365.994667c-17.664 0-32 14.336-32 32l0 108.245333c0 17.664 14.336 32 32 32l80.554667 0 0 87.552c0 8.149333 9.130667 14.805333 20.309333 14.805333 11.178667 0 20.309333-6.656 20.309333-14.805333l0-87.552L334.933333 538.24c17.664 0 32-14.378667 32-32L366.933333 397.994667C366.933333 380.330667 352.597333 365.994667 334.933333 365.994667zM337.066667 506.24c0 1.194667-0.938667 2.133333-2.133333 2.133333l-203.818667-2.133333 2.133333-110.378667L337.066667 397.994667 337.066667 506.24z" p-id="51356"></path><path d="M612.821333 160.256l-78.250667 0L534.570667 136.533333c0-8.149333-9.130667-14.805333-20.309333-14.805333S493.952 128.384 493.952 136.533333l0 23.722667L411.136 160.256c-17.664 0-32 14.378667-32 32l0 118.997333c0 17.664 14.336 32 32 32l80.554667 0 0 281.301333c0 8.149333 9.130667 14.805333 20.309333 14.805333s20.309333-6.656 20.309333-14.805333L532.309333 343.296l80.554667 0c17.664 0 32-14.336 32-32L644.864 192.298667C644.821333 174.634667 630.485333 160.256 612.821333 160.256zM614.997333 311.296c0 1.194667-0.938667 2.133333-2.176 2.133333l-203.818667-2.133333 2.133333-121.130667 203.861333 2.133333L614.997333 311.296z" p-id="51357"></path><path d="M228.010667 740.522667c-30.634667 0-55.552 24.874667-55.552 55.509333s24.917333 55.552 55.552 55.552 55.552-24.917333 55.552-55.552S258.645333 740.522667 228.010667 740.522667zM228.010667 821.76c-14.165333 0-25.685333-11.562667-25.685333-25.728 0-14.122667 11.52-25.685333 25.685333-25.685333s25.685333 11.562667 25.685333 25.685333C253.696 810.197333 242.176 821.76 228.010667 821.76z" p-id="51358"></path><path d="M886.826667 422.485333l-80.725333 0L806.101333 195.84c0-8.149333-9.130667-14.805333-20.309333-14.805333-11.178667 0-20.309333 6.656-20.309333 14.805333l0 226.645333-79.274667 0c-18.346667 0-33.237333 14.933333-33.237333 33.237333l0 113.792c0 17.621333 14.336 31.957333 32 31.957333l80.512 0 0 23.082667c0 8.149333 9.130667 14.805333 20.309333 14.805333 11.178667 0 20.309333-6.656 20.309333-14.805333l0-23.082667 81.621333 0c17.024 0 30.933333-13.824 30.933333-30.890667l0-116.352C918.613333 436.736 904.362667 422.485333 886.826667 422.485333zM888.789333 570.624c0 0.597333-0.512 1.024-1.066667 1.024l-204.928-2.133333 0-113.792c0-1.834667 1.536-3.370667 3.413333-3.370667l202.581333 1.92L888.789333 570.624z" p-id="51359"></path><path d="M514.048 740.522667c-30.634667 0-55.552 24.874667-55.552 55.509333s24.917333 55.552 55.552 55.552 55.552-24.917333 55.552-55.552S544.682667 740.522667 514.048 740.522667zM514.048 821.76c-14.165333 0-25.685333-11.562667-25.685333-25.728 0-14.122667 11.52-25.685333 25.685333-25.685333s25.685333 11.562667 25.685333 25.685333C539.690667 810.197333 528.170667 821.76 514.048 821.76z" p-id="51360"></path><path d="M795.946667 740.522667c-30.634667 0-55.509333 24.874667-55.509333 55.509333s24.874667 55.552 55.509333 55.552 55.552-24.917333 55.552-55.552S826.581333 740.522667 795.946667 740.522667zM795.946667 821.76c-14.122667 0-25.685333-11.562667-25.685333-25.728 0-14.122667 11.562667-25.685333 25.685333-25.685333 14.165333 0 25.728 11.562667 25.728 25.685333C821.674667 810.197333 810.112 821.76 795.946667 821.76z" p-id="51361"></path></svg>